<?xml version="1.0" encoding="utf-8"?>
<!-- Generator: Adobe Illustrator 26.0.3, SVG Export Plug-In . SVG Version: 6.00 Build 0)  -->
<svg version="1.1" id="Layer_1" xmlns="http://www.w3.org/2000/svg" xmlns:xlink="http://www.w3.org/1999/xlink" x="0px" y="0px"
	 viewBox="0 0 454 454" style="enable-background:new 0 0 454 454;" xml:space="preserve">
<style type="text/css">
	.st0{fill:#FEE076;}
	.st1{fill:#FD76A7;}
	.st2{fill:#528ED7;}
	.st3{fill:#FC5693;}
	.st4{fill:#518ED7;}
	.st5{fill:#FDD05A;}
	.st6{fill:#0572CD;}
	.st7{fill:#0064BF;}
	.st8{fill:#FACD59;}
	.st9{fill:#010000;}
	.st10{fill:#010001;}
	.st11{fill:#010101;}
	.st12{fill:#020101;}
	.st13{fill:#000101;}
	.st14{fill:#000001;}
	.st15{fill:#FCC143;}
	.st16{fill:#EFB740;}
	.st17{fill:#EDB53F;}
	.st18{fill:#4C84C7;}
	.st19{fill:#497FBF;}
</style>
<g>
	<g>
		<path d="M35.7,310.6c3.6-6.8,9.1-9.7,17-9.3c11.9,0.5,23.9-0.1,35.9,0.2c4.7,0.1,5.8-1.4,5.8-5.9c0.1-7.8-1.1-14.7-5.3-21.8
			c-31.5-53.8-26.9-123.5,10.8-173c2.8-3.7,5.5-6.4,10.5-4.6c5.6,3.9,2.9,8.2,0.3,12.1c-6.7,9.9-13.3,19.8-17.8,30.9
			c-15.1,36.6-15.2,73.4-1.1,110.3c1.3,4.2,3.2,8.2,5.1,12.1c1.8,3.8,4.5,4.2,7.8,2.5c3.8-1.9,0.7-4.2-0.1-6.1
			c-1.5-3.6-3.6-7-5-10.6C79.1,192.3,89,142.7,128.7,99.9c22.2-23.9,50.8-37,83.5-40.5c43.3-4.6,80.5,9.1,111.8,38.7
			c13.8,13.1,24,29,31.1,46.8c8,21.8,12.6,44.1,8.6,67.4c-0.9,5.1-2.1,9.9-8.7,10.1c-3.4-0.5-5.1-2.8-6.3-5.8
			c-0.5-6.7,0.4-13.3,0.6-20c1.6-58.8-43.3-115.3-108.9-122.2c-67.9-7.1-123.1,39.6-133.7,99.5c-4.6,25.8-1.6,50.9,10.2,74.6
			c4,11.9,12,15.3,24.5,15.2c58.5-0.7,117.1-0.5,175.6-0.1c8.9,0,14.7-2.7,18-11c1.7-4.1,3.8-8.1,5.6-12.2c1.7-3.8,4.2-6.7,8.8-7.1
			c6,1.5,6.8,5.9,5.9,10.9c-0.9,4.9-3.5,9.2-5.6,13.7c-1,2-3.3,4.5,0.5,6.1c3,1.3,5.4,0.2,6.8-2.7c2.9-6.3,6-12.5,8-19.2
			c15.3-49.6,8-95.2-24-136.6c-25.2-31.4-57.7-49.6-97.9-54.1c-40.6-4.1-76.6,7.1-108.6,32.4c-3.8,3-7.8,7.8-13.5,2.8
			c-3.7-5.4-0.2-8.5,3.6-11.7c57.8-49.5,146.1-49.7,204.5-0.3c60.6,51.1,74.5,135.7,33.3,203.9c-4.1,6.9-2.1,13.9-2.3,21
			c-0.1,2.9,3,1.9,4.7,2c12.2,0.1,24.4,0.4,36.6-0.1c7.9-0.3,13.4,2.5,17,9.3c0,2.5,0,5,0,7.4c-1.6,9.6-4.8,18.7-8,27.7
			c-1.4,3.9-1.4,7.7,0,11.6c3.3,9.1,6.4,18.2,8,27.7c0,2.5,0,5,0,7.4c-3.3,9.2-5.7,11.1-15.8,11.2c-28.3,0.2-56.7,0.2-85,0
			c-13-0.1-19.1-6.1-19.5-19.2c-0.5-17.5,2.1-16.4-17.4-16.5c-31.1,0-62.1,0.1-93.2-0.1c-5.7,0-11.8,0.5-14-6.9
			c0.1-4.9,3.3-6.9,7.6-7.7c3.4-0.7,7-0.5,10.4-0.5c47.3,0,94.7,0,142,0c12,0,12.2-0.2,12.2-12c0-17.6,0.1-35.2,0-52.9
			c-0.1-8.6-0.8-9.3-9.5-9.3c-72.7-0.1-145.5-0.1-218.2,0c-9.1,0-9.7,0.7-9.7,9.8c-0.1,18.4-0.1,36.7,0,55.1c0,8.6,0.7,9.1,9.5,9.2
			c11.2,0.1,22.4-0.2,33.6,0.1c5,0.1,9.6,1.2,10,7.6c-5.7,8.4-5.2,18-5.9,27.6c-0.7,9.7-7,15.3-16.8,15.4c-29.6,0.4-59.2,0.3-88.7,0
			c-8.8-0.1-11.2-2.3-14.4-11.1c0-2.5,0-5,0-7.4c1.6-9.6,4.8-18.7,8-27.7c1.4-3.9,1.4-7.7,0-11.6c-3.3-9.1-6.4-18.2-8-27.7
			C35.7,315.6,35.7,313.1,35.7,310.6z"/>
		<path class="st0" d="M90.7,251.2c-20-50.9-13.5-98.6,18-143.1c2.7-3.8,5.4-7.3,1.8-11.8c3.5-3.2,7-6.4,10.5-9.7
			c4.7,2,7.8-0.6,11.2-3.4C193,32.8,280.6,38.1,334.9,95.5c2.7,2.9,5,6.1,7.4,9.2c5.8,10.3,10.1,21.3,12.5,32.9
			c0.5,2.6,2.3,5.8-1.7,7.5c-18.8-42.3-50.2-70.1-95.7-81c-78.5-18.7-157.1,37.6-165.2,117.7c-2.3,23,1.6,44.8,9.3,66.3
			C98.5,251.3,95.2,253.1,90.7,251.2z"/>
		<path class="st1" d="M114.8,248.2C93.5,209.6,100.5,154,131.2,117c32.1-38.7,84.5-55.2,132-39.7c50.9,16.6,80,52.5,87.7,105.3
			c1.6,11.3,0.9,22.8-1,34.1c-0.1,4.6-3,7.7-5.7,11c-14,16.7-32.9,22.5-53.8,22.6c-55.7,0.3-111.4,0.1-167.1,0.1
			C120.2,250.3,117.3,250.1,114.8,248.2z"/>
		<path class="st2" d="M174.8,361c-4.9,0-9.8,0.1-14.7,0.1c-0.5-5.3-4.1-6-8.5-6c-13.2,0.1-26.4-0.1-39.6,0.1
			c-4.8,0.1-6.4-1.1-6.4-6.2c0.3-22.1,0.3-44.2,0-66.3c-0.1-5.1,1.8-6.2,6.5-6.2c76.7,0.1,153.4,0.1,230.1,0c5,0,6.3,1.6,6.3,6.4
			c-0.2,21.6-0.3,43.2,0,64.8c0.1,5.8-1.4,7.5-7.4,7.5C289,355,237,355.1,184.9,355C180.4,355,175.9,355,174.8,361z"/>
		<path class="st3" d="M114.8,248.2c56.3,0,112.6-0.4,168.9,0.1c27.6,0.2,50.8-7,66.3-31.5c1.6,1.5,3.2,3.1,4.7,4.6
			c2.2,5.4,1.2,10.1-3.5,13.8c-4.5-0.3-6.7,2.2-8.1,6.1c-2.7,7.2-6.4,13.9-10.3,20.6c-1.7,3-3.8,3.9-7.2,3.9
			c-65.5-0.1-130.9-0.1-196.4,0c-3.8,0-6-1.2-7.7-4.4C119.1,257,116,253,114.8,248.2z"/>
		<path class="st4" d="M97.4,390.6c-14.9,0.1-29.8,0.1-44.7,0.3c-5,0.1-6.1-1.7-4.5-6.2c2.9-8.2,5.4-16.4,8.4-24.5
			c2.2-5.9,2.1-11.5-0.1-17.3c-3-8.1-5.6-16.4-8.4-24.5c-1.4-3.9-0.7-6.1,4.2-5.9c7.9,0.3,15.9,0.3,23.8,0.4
			c2.7,2.6,2.1,5.9,2.1,9.1c0.1,10.9,0.6,21.8-0.1,32.7c-0.7,11.6,3.8,20.1,13,26.6c2.2,1.6,4.5,3.2,6.3,5.3
			C98.6,387.7,99.6,389.1,97.4,390.6z"/>
		<path class="st4" d="M378.2,312.7c7.9-0.1,15.9-0.1,23.8-0.4c4.9-0.2,5.5,2,4.1,6c-2.7,7.9-5.2,16-8.2,23.8
			c-2.4,6.3-2.5,12.4-0.1,18.7c3,7.8,5.4,15.9,8.2,23.8c1.6,4.5,0.4,6.3-4.6,6.2c-14.4-0.3-28.8-0.2-43.2-0.3
			c-4.7-1.1-2.4-3.3-0.6-5c3.1-3.1,6.9-5.6,10.1-8.6c5.8-5.4,8.6-11.7,8.4-19.7c-0.3-11.8-0.1-23.6,0-35.5
			C376.2,318.7,375.6,315.3,378.2,312.7z"/>
		<path class="st5" d="M351.1,235.2c1.8-4.4,2.9-9.1,3.5-13.8c5.3-0.4,6.6-3.8,7.2-8.6c3-23.3-0.5-45.7-8.7-67.6
			c1-11.7-4.8-21.6-8.3-32.1c-0.9-2.8-2.9-5.2-2.4-8.4c17.6,20.5,27.2,44.6,31,71c4,27.8,0,54.7-11.6,80.4c-1.7,3.8-3,8.6-6,10.9
			c-3.2,2.4-7.1-3.2-12-0.7c3.6-7.9,6.6-14.4,9.6-20.8C355.3,241.5,355.2,237.9,351.1,235.2z"/>
		<path class="st6" d="M97.4,390.6c-0.2-4.1-4-5.1-6.5-6.9c-10-7-15.7-15.6-14.9-28.6c0.9-14.1,0.2-28.2,0.1-42.3
			c18.2-1.4,18.2-1.4,18.2,16.8c0,7.2,0.4,14.4-0.1,21.5c-0.7,8.9,2.8,15,10.1,19.9c8.6,5.8,16.6,12.3,26.4,19.7
			C118.4,390.6,107.9,390.6,97.4,390.6z"/>
		<path class="st6" d="M378.2,312.7c0,13.8-0.8,27.7,0.2,41.4c1,13.6-5.2,22.4-15.4,29.8c-1.9,1.4-7.6,1.4-4.7,6.6
			c-10.9,0-21.7,0-34.6,0c8.4-6.3,15.1-12.4,22.7-17c10.5-6.4,15-14.7,13.7-27.1c-0.9-8.8,0.2-17.8-0.3-26.7c-0.4-6.4,2-8.3,8-7.5
			C371.3,312.8,374.8,312.6,378.2,312.7z"/>
		<path class="st7" d="M313.6,384.1c-0.9-1.1-1.1-1.3-1.1-1.5c-1.7-16.6-1.7-16.6,14.6-16.6c2.6,0,5.3,0,8.7,1.5
			C328.5,372.9,321.2,378.4,313.6,384.1z"/>
		<path class="st7" d="M119.2,366c6.3,0,12.6,0.1,18.8,0c3.4-0.1,4.2,1.6,4.1,4.5c-0.1,4.2,0,8.3,0,14.5c-8.6-6.5-16-12-23.4-17.6
			C118.9,367,119,366.5,119.2,366z"/>
		<path class="st8" d="M90.7,251.2c3.6-1.1,7.2-2.1,10.8-3.2c2.9,5.7,5.9,11.3,8.9,17.2c-4.6-0.4-9.4,4.2-11.9,1.7
			C94.4,263,92.3,257,90.7,251.2z"/>
		<path class="st9" d="M225.1,161.7c4.2,0,8.5-0.1,12.7,0c3.4,0.1,5.7,1.8,5.9,5.4c0.2,3.7-2.3,5.5-5.6,5.7c-5,0.3-10,0.6-14.9,0.1
			c-5.7-0.6-7.6,2-7.9,7c-0.1,1.5-0.1,3.1-0.6,4.4c-2,5.2,0,6,5,6c19.8-0.1,33,16.9,27.4,34.9c-3.7,12-13.5,19-26.4,18.9
			c-12.4-0.1-21.8-7.2-25.5-19.1c-1.2-3.8-2.1-7.7,2.5-9.5c5.2-2,6.8,1.9,8.2,6c2.8,8.1,9.4,12.5,16.9,11.7
			c7.4-0.8,13.3-6.7,14.3-14.1c1.5-11.3-8.9-19.4-22-17.1c-1.9,0.3-3.8,1.1-5.7,1.7c-5.4,1.8-8.8-0.3-8.2-5.8
			c1.2-10.6,3.1-21.1,5.1-31.6c0.9-4.7,5.1-4.7,8.9-4.6C218.6,161.7,221.9,161.6,225.1,161.7z"/>
		<path class="st10" d="M162.3,233.2c8.2,0,15.3,0.1,22.4,0c4.2-0.1,7.8,1.1,7.7,5.9c-0.1,4.3-3.7,5.4-7.5,5.4
			c-10.7,0-21.4,0.3-32.1-0.1c-7.2-0.2-9.2-4.4-5.1-10.4c7.4-10.9,15.2-21.5,22.6-32.3c2.4-3.5,4.8-7,6.6-10.8
			c3.2-6.9,0.4-14.3-5.9-17c-6.5-2.8-13.5,0.1-16.7,6.9c-0.2,0.4-0.3,0.9-0.4,1.4c-1.1,3.6-3.6,5.7-7.3,4.5c-4.4-1.3-4.1-5-3.2-8.6
			c3.9-14.7,22.9-21.3,35.7-12.5c10.7,7.4,13.8,20.2,6.7,32.1C178.8,209.6,170.8,220.6,162.3,233.2z"/>
		<path class="st11" d="M206.6,134.3c1.3-2.8-0.1-4.7-2-7c-7.1-8.4-4.4-17,6.2-19.4c3.4-0.7,4.8-2.6,6.5-5.2
			c5.2-8.2,14.8-8.2,19.8,0.2c1.9,3.1,3.9,4.4,7.4,5.2c9.1,2.1,12.2,11.1,6.1,18.2c-2.4,2.9-3.3,5.3-3,9.1
			c0.9,9.1-7.2,14.7-15.7,11.3c-3.2-1.3-5.6-1.7-9-0.2C213.6,150.5,205.8,144.6,206.6,134.3z"/>
		<path class="st9" d="M192.7,127.2c-3.8,4.2-3,11.4-6.3,16.9c-3.5,5.9-24.7,5.9-27.8-0.1c-3.1-5.8-4.9-12.5-6-19
			c-0.8-4.8,14.9-16.7,20.3-16.4C178.7,108.9,192.8,121.2,192.7,127.2z"/>
		<path class="st9" d="M302.3,126.8c-3.5,4.8-3.7,11.4-6.4,16.8c-3.4,6.8-25.6,6.6-28.6-0.3c-2.3-5.4-4.2-11.2-5.6-17
			c-1.4-5.9,14.9-19.5,21.1-17.3c6.9,2.5,12.6,7.7,18,12.8C301.8,122.7,301.8,124.6,302.3,126.8z"/>
		<path class="st12" d="M284,179.4c0-3.7,0-7.4,0-11.2s1.7-6.4,5.6-6.5c3.5-0.1,5.1,2.4,5.5,5.8c0.2,2.2-1.1,5.6,2.9,5.5
			c4.2-0.1,2.1-3.7,2.4-5.7c0.6-3.4,2.3-5.7,5.7-5.7c3.6,0,5.4,2.5,5.5,5.9c0.2,7.4,0.2,14.9,0.1,22.3c-0.1,3.6-1.5,6.5-5.6,6.4
			c-4-0.1-5.3-2.7-5.7-6.5c-0.2-2,1.8-5.6-2.5-5.6c-4.1,0-2.6,3.5-2.8,5.6c-0.3,3.7-1.6,6.5-5.7,6.4c-3.9-0.1-5.5-2.7-5.5-6.5
			C284,186.4,284,182.9,284,179.4z"/>
		<path class="st10" d="M263.8,161.7c2.5,0,5-0.4,7.4,0.1c4.6,0.9,6.9,6.8,3.2,8.7c-6.6,3.5-4.6,8.8-5.1,13.9
			c-0.4,4.5,2.4,11.6-5.2,11.7c-8.3,0.2-5.3-7.3-5.7-11.9c-0.4-5.1,1.3-10.4-5.2-13.8c-3.2-1.7-1-7.5,3.1-8.4
			C258.8,161.4,261.3,161.8,263.8,161.7C263.8,161.8,263.8,161.8,263.8,161.7z"/>
		<path class="st13" d="M266.1,324.5c-0.3,4.4-0.1,7.1-0.6,9.7c-0.6,2.9-2.3,5-5.7,4.8c-3.3-0.1-5.3-2.2-5.4-5.1
			c-0.2-13.6-0.1-27.3,0-40.9c0-2,1.5-4.3,3.4-4.4c8.1-0.7,16.5-2.6,23.6,3.3c7.9,6.5,8,18.3-0.6,24.3c-4.5,3.1-3.3,4.8-0.5,7.6
			c1.6,1.6,3.1,3.3,4.5,5c2.5,3,3.5,6.3,0.1,9.1c-3,2.4-6,1.3-8.5-1.5C273.5,332.9,270.4,329.4,266.1,324.5z"/>
		<path class="st13" d="M313.1,339.1c-6.2,0.1-11.7-2-16.3-6.2c-2.8-2.4-3.9-5.5-1.6-8.5c2.4-3.2,5.6-2.6,8.5-0.3
			c3.4,2.8,7.1,4.7,11.6,3.6c1.9-0.4,3.9-1.3,4.3-3.6c0.4-2.4-1.5-3.6-3.3-4.4c-3.6-1.6-7.3-3-11-4.5c-6.5-2.6-10.1-7.2-9.2-14.4
			c0.8-6.6,6.6-11.9,13.7-12.7c5.6-0.7,10.9,0.5,15.7,3.5c3.1,2,5.8,4.5,3.5,8.5c-2.2,3.9-5.5,3.5-8.9,1.4c-2.8-1.7-5.7-3.1-9.1-2.2
			c-1.4,0.4-2.9,1-3.2,2.7c-0.4,1.9,1.1,2.6,2.5,3.1c3.2,1.3,6.5,2.5,9.7,3.9c8.6,3.8,12.5,10,10.9,17.2
			C329.1,334.2,322.3,339.2,313.1,339.1z"/>
		<path class="st13" d="M246.6,333.6c-0.4,2.7-1.5,4.8-4.4,5.4c-2.7,0.6-5.3-0.3-6.1-3c-2.9-10.2-11.1-5.6-17.3-6.2
			c-3.2-0.3-3.2,3.3-4.2,5.4c-1.7,3.4-4.4,5-7.9,3.4c-3-1.4-3.9-4.2-2.6-7.5c5.2-12.8,10.2-25.7,15.3-38.6c1-2.5,2.6-4.2,5.4-4.3
			c2.9-0.1,4.6,1.5,5.6,4c5.2,13.1,10.4,26.1,15.6,39.2C246.4,332.1,246.4,332.9,246.6,333.6z"/>
		<path class="st13" d="M167.5,313c0-5.2,0-10.4,0-15.6c0-1.5-0.1-3,0.2-4.4c0.9-3.8,3.7-5.4,7.3-4.8c6.8,1.2,14.9-3.7,20.1,3.5
			c2.2,3.1-0.3,6.3-4.1,7.1c-2.4,0.5-5,0.4-7.4,0.2c-3.6-0.3-4.7,1.3-4.7,4.8c0,3.2,1.1,4.6,4.4,4.2c0.7-0.1,1.5,0,2.2,0
			c4.2,0,8.6,0.1,8.7,5.6c0.1,5.5-4.3,5.6-8.5,5.9c-2.2,0.1-5.6-1.6-6.4,1.8c-0.9,3.6-1.3,7.5,4.9,7.2c4.5-0.2,11.5-2,11.2,5.7
			c-0.3,6.9-6.9,5-11.2,5c-16.7,0.2-16.7,0.1-16.7-16.5C167.5,319.4,167.5,316.2,167.5,313z"/>
		<path class="st14" d="M141.2,302.1c3.8-2.9,5.3-7,7.7-10.3c2.2-3,4.8-4.7,8.2-2.7c3.7,2.3,3.4,5.6,1.1,9c-0.9,1.2-1.5,2.6-2.5,3.7
			c-6.8,8.2-10,17.4-8.8,28.2c0.4,3.8,0.7,8.8-5,9c-6.1,0.2-6.4-4.7-5.9-9c1.3-10.7-1.5-20-8.6-28.1c-1.4-1.7-2.6-3.7-3.5-5.7
			c-1.4-2.8-0.8-5.6,1.8-7.2c2.6-1.6,5.4-1.1,7.3,1.4C135.9,294.1,138.4,298,141.2,302.1z"/>
		<path class="st15" d="M242.3,118.8c-5.5,4.8-7.4,10.1-5.8,17.3c-6.4-2.8-12.2-4.4-18.4,1.1c1.2-7.9-0.2-13.6-6-18.5
			c7.5-0.3,12-3.5,15-10.5C230.3,114.8,234.7,118.6,242.3,118.8z"/>
		<path class="st16" d="M172.4,134.6c-6,1.5-5.4-4.1-5.7-6.4c-0.3-2.7,3.9-3.6,6-5.3c1.4,2.5,6.4,2.2,5.6,5.7
			C177.8,131.2,178,136.4,172.4,134.6z"/>
		<path class="st17" d="M281.9,134.6c-5.6,1.8-5.3-3.4-5.9-6c-0.8-3.5,4.2-3.3,5.6-5.7c2.1,1.8,6.4,2.6,6,5.3
			C287.3,130.5,287.9,136.1,281.9,134.6z"/>
		<path class="st18" d="M268.7,298.8c4.2,0.4,7.3,1.5,7.3,5c0,3.9-3.3,5-6.8,5.2c-4.6,0.2-3.4-3.2-3.5-5.6
			C265.4,300.5,266.1,298.4,268.7,298.8z"/>
		<path class="st19" d="M224.7,309.5c2.3,2.8,3.1,5.3,3.6,7.9c-2.1,1.3-4.2,0.7-6.8,0.3C222.6,315,223.5,312.6,224.7,309.5z"/>
	</g>
</g>
</svg>
