<?xml version="1.0" encoding="utf-8"?>
<!-- Generator: Adobe Illustrator 26.0.3, SVG Export Plug-In . SVG Version: 6.00 Build 0)  -->
<svg version="1.1" id="Layer_1" xmlns="http://www.w3.org/2000/svg" xmlns:xlink="http://www.w3.org/1999/xlink" x="0px" y="0px"
	 viewBox="0 0 448 448" style="enable-background:new 0 0 448 448;" xml:space="preserve">
<style type="text/css">
	.st0{fill:#000101;}
	.st1{fill:#020202;}
	.st2{fill:#010001;}
	.st3{fill:#BC7FE0;}
	.st4{fill:#070707;}
	.st5{fill:#040404;}
	.st6{fill:#141414;}
	.st7{fill:#0B0B0B;}
	.st8{fill:#060606;}
	.st9{fill:#D8B0ED;}
	.st10{fill:#62DAFA;}
	.st11{fill:#01CFFA;}
	.st12{fill:#01CFF9;}
	.st13{fill:#FED05B;}
	.st14{fill:#61DAFA;}
	.st15{fill:#FCDF76;}
	.st16{fill:#FDDF76;}
	.st17{fill:#C996E5;}
	.st18{fill:#BB7FDF;}
	.st19{fill:#CA96E5;}
	.st20{fill:#FDE076;}
	.st21{fill:#FDCF5B;}
	.st22{fill:#61DAF9;}
	.st23{fill:#01CEF9;}
	.st24{fill:#FD92BA;}
	.st25{fill:#FC76A7;}
	.st26{fill:#010101;}
	.st27{fill:#000202;}
	.st28{fill:#010100;}
	.st29{fill:#D7AFEB;}
	.st30{fill:#C29FD5;}
	.st31{fill:#49B7D4;}
	.st32{fill:#DAB44F;}
	.st33{fill:#F9CC5A;}
	.st34{fill:#F9DC74;}
</style>
<g>
	<g>
		<path d="M144.6,143.7c-5.2-1.3-5.7-5.2-5.9-9.8c-0.2-3.6,3.1-9.1-5.3-9.2c-8.8-0.1-5.7,5.7-5.8,9.6c-0.2,18.2-0.3,36.3,0,54.5
			c0.1,5.3-1.6,8.8-6.2,11.6c-9.1,5.6-18,11.6-26.8,17.8c-4.7,3.3-8.5,3.8-13.4,0.2c-9.1-6.6-18.5-12.7-28-18.6
			c-3.9-2.4-5.2-5.4-5.2-9.8c0.2-19.2-0.1-38.3,0.2-57.5c0.1-5.3-0.6-8.9-7.1-7.6c-3.4,0.7-6.1-1.2-9-2.3c0-2,0-4,0-6
			c2.8-2.3,5.9-3,9.5-3c23,0.2,45.9,0.1,68.9,0.1c2.4,0,4.8,0,8.5,0c-5.2-4.7-9.6-8.3-12.5-13.2c-5.1-8.6-5.8-17.4-0.2-26
			c5.4-8.3,13.3-11.8,23.1-10.3c3.4,0.5,6.1-0.1,9.1-1.7c8.7-4.6,17.4-3.9,25.2,2.1c7.9,6,10.5,14.2,8.6,23.8
			c-1.8,9.5-7.4,17-14.2,25.3c3.9,0,6.6,0,9.2,0c79.1,0,158.2,0,237.3,0c4,0,7.9-0.1,11,3c0,2,0,4,0,6c-2.9,1.1-5.6,3-9,2.3
			c-6.5-1.3-7.2,2.3-7.1,7.6c0.3,18.9,0,37.8,0.2,56.7c0.1,5-1.5,8.3-5.8,11c-9.5,5.9-18.9,12.1-28,18.6c-4.4,3.1-7.9,2.7-12.1-0.3
			c-9.2-6.4-18.5-12.6-28-18.6c-4.1-2.6-5.6-5.7-5.6-10.4c0.2-19.1,0-38.3,0.1-57.5c0-4.3,0.3-7.3-5.9-7.4c-6.9-0.1-5.4,3.9-5.4,7.7
			c0,18.9-0.2,37.8,0.1,56.7c0.1,5-1.5,8.3-5.8,11.1c-9.7,6.1-19.2,12.5-28.6,19c-3.8,2.6-7,2.7-10.9,0
			c-9.6-6.7-19.3-13.2-29.2-19.4c-3.9-2.5-5-5.5-5-9.9c0.2-19.1,0.1-38.3,0.1-57.5c0-3.9,0.9-7.5-5.6-7.6c-6.9-0.1-6.1,3.7-6.1,7.9
			c0.1,18.9-0.2,37.8,0.1,56.7c0.1,5.1-1.7,8.3-5.9,11c-9.5,6-18.8,12.2-28,18.6c-4.1,2.8-7.4,2.9-11.5,0
			c-9.6-6.7-19.4-13.1-29.2-19.5c-3.5-2.3-5-5-4.9-9.2c0.2-8,0.2-15.9,0-23.9c-0.1-4.2,1.2-7.3,5.8-8.2c5.4-1.3,6.9,2.3,7.8,6.3
			c0.9,4.1,0.5,8.2,0.4,12.4c-1.6,9,2.2,14.6,10,19.3c19.3,11.7,12.7,11.6,31.6,0.2c8.5-5.1,12-11.2,11.4-21.1
			c-0.8-12.6-0.2-25.3-0.2-37.9c0-9.4-0.1-9.4-9.6-9.6c-11.5,0.3-22.9,0.3-34.4,0c-5.7-0.1-8.8,1.4-9.2,7.7
			C152.2,139.7,151.2,144.7,144.6,143.7z"/>
		<path d="M337.6,237.6c1.2-3.6,3.8-4.7,7.5-4.7c8.2,0.2,16.4,0.3,24.6,0c6.1-0.2,8.4,2.4,8.6,8.3c0.3,14.3,0.5,13.9,14.7,14.4
			c7.7,0.3,15.9-2.9,22.9,2.8c0,2,0,4,0,6c-2.7,12.8-11.9,24.5-11.6,36.9c0.2,12.1,8.9,23.7,11.6,36.2c0,2,0,4,0,6
			c-2.5,2.3-5.3,3.1-8.8,3.1c-20.7-0.1-41.4-0.2-62.2,0c-6,0-8.5-2.2-8.6-8.3c-0.2-14.9-0.4-14.9-17-14c5.1,7.5,7.2,15.3,4.2,23.8
			c-3.4,9.7-10.7,16.2-19.3,20.9c-23.4,12.7-21.2,12.9-38.1-6.3c-9.6-10.9-15.3-23.4-8.6-38.8c-11.6,0-22.6,0-33.5,0
			c-35.4,0-70.9,0.1-106.3-0.1c-4.9,0-6.3,1.2-6.1,6.1c0.6,18.4,0.4,16.7-17.3,16.5c-4.9-0.1-10.7,2.5-14.4-3.3
			c-2.1-5.9,0.9-8.3,6.4-9c1.5-0.2,3-0.1,4.5-0.2c2.6-0.3,6.2,0.3,6.2-3.6c0-4.4-3.8-3.8-6.6-4c-3.5-0.2-7,0-10.5-0.1
			c-8.5-0.4-11.8-3.3-12.1-11.9c-0.4-12.2,0-24.4-0.2-36.5c0-2.8,1-6.6-2.8-7.7c-4.1-1.2-8.5-1.4-12.5,0.2c-2.5,0.9-1.2,3.5-0.6,5.2
			c2,5.4,3.8,10.8,6.1,16c2.7,6.3,2.8,12.5,0,18.8c-2.2,5-3.9,10.2-5.8,15.3c-2.6,6.9-2.3,7.4,5,8.4c5.4,0.8,9.4,2.4,7,9.1
			c-0.6,0.7-1.2,2-1.9,2.1c-10,1.4-20.2,3.8-29.8-1.7c0-2,0-4,0-6c2.7-12.8,11.9-24.5,11.6-36.9c-0.2-12.1-8.9-23.7-11.6-36.2
			c0-2,0-4,0-6c2.5-2.2,5.3-3.2,8.8-3.1c8,0.3,16-0.1,23.9,0.2c3.7,0.1,5.3-0.7,5.1-4.8c-0.9-21.4,1-17.7,18.3-17.7
			c74.8-0.1,149.6,0,224.5-0.1c4.9,0,9,0.3,10.2,6.1c0.2,4.7-3.1,5.8-6.7,6.5c-3.7,0.7-7.5,0.5-11.2,0.5c-68.2,0-136.3,0-204.5,0
			c-2.5,0-5,0-7.5,0c-8.1,0.2-9,1-9.1,9.1c-0.1,15.2-0.1,30.3,0,45.5c0.1,8.3,0.8,9,8.9,9.2c2.7,0.1,5.5,0,8.2,0
			c79.1,0,158.3,0,237.4,0c3,0,6-0.2,9,0.2c17.4-0.6,16.5,3,16.5-17c0-13.1-0.1-26.2,0-39.3c0.1-5.6-2.2-8.1-7.9-7.9
			c-4.9,0.2-9.9,0.1-14.9-0.6C337.8,243.8,336.1,241.5,337.6,237.6z"/>
		<path class="st0" d="M344,31.5c4.8,3.3,9.6,5.1,16,4.6c17.8-1.5,30.2,15.8,23,32.1c-7.3,16.4-22.6,22.9-38.3,28.6
			c-1.1,0.4-3.1-0.2-4.2-1c-11.2-9-21.2-19.1-25-33.5c-3.6-13.8,1.2-22.2,16.5-30.7C336,31.5,340,31.5,344,31.5z"/>
		<path class="st1" d="M90.7,31.5c2.9,2.5,5,5.8,2.1,8.9c-3.5,3.8-6.1,9.4-12.4,9.5c-2.1,0-3.8-1.2-4.4-3.3
			c-0.7-2.2-0.3-4.4,1.4-6.1c3-2.9,5.9-5.9,8.8-8.9C87.7,31.5,89.2,31.5,90.7,31.5z"/>
		<path class="st2" d="M180.6,374.2c-0.7,11-7.8,20.8-16.3,29.7c-11.2,11.6-11.8,11.8-26,4.8c-8.1-3.9-15.6-8.7-21.4-15.8
			c-7.4-9-8.7-19.2-3.7-28.3c5.1-9.3,13.9-13.4,26-11.3c3,0.5,4.6-0.9,6.7-2C162,342.8,180.7,354.1,180.6,374.2z"/>
		<path class="st3" d="M64,343.2c0.9-7.5-4.1-7.7-9.5-7.7c-8.5,0-9.4-0.6-5.3-7.9c10-18,10-35.5-0.2-53.3c-3.6-6.1-1.2-7.8,5.4-7.6
			c15.7,0.3,15.7,0.1,15.7,15.4c0,11.2,0.1,22.4,0,33.6c-0.1,6,2.5,8.7,8.6,8.4c5.2-0.2,10.5,0.2,15.7-0.1c4.1-0.2,6.2,0.4,6.3,5.5
			c0,5.2-2,6.5-6.6,6.1c-2.2-0.2-4.5,0-6.7,0c-5.3-0.1-8,2.2-7.2,7.7C74.6,339.4,69.3,339.4,64,343.2z"/>
		<path class="st4" d="M209.1,348.3c3.5,0.2,12.9,9.6,12.9,12.8c0,2.1-0.7,3.8-2.7,5c-2.2,1.3-4.5,1.1-6.3-0.4
			c-3-2.6-5.8-5.5-8.4-8.4c-1.6-1.8-1.7-4-0.3-6.2C205.5,349.2,207.2,348.5,209.1,348.3z"/>
		<path class="st5" d="M383.2,376.4c3.3,0.1,5.1,2,5.5,5c0.6,3.9-9.3,13.5-13.4,13.2c-3.4-0.2-4.9-2.4-5.1-5.3
			C369.9,385.8,379.7,376.3,383.2,376.4z"/>
		<path class="st1" d="M74.7,377.3c0,3.8-9.3,12.9-13,12.8c-4.2-0.1-7.1-4.4-4.6-7.8c2.7-3.7,6.1-7.2,9.9-9.9
			C70.4,370.1,74.7,373.2,74.7,377.3z"/>
		<path class="st6" d="M329.3,391.3c-3.7-0.7-5.9-2.6-5.8-6c0.1-3.3,2.4-5.5,5.8-5.4c3.3,0.1,5.6,2.3,5.4,5.7
			C334.6,389.1,332.1,390.7,329.3,391.3z"/>
		<path class="st7" d="M229.9,396.6c-0.9,3.5-2.5,5.8-6.1,5.6c-3.2-0.2-5.1-2.3-5.2-5.2c-0.1-3.3,1.9-5.6,5.5-5.7
			C227.7,391.3,229,393.9,229.9,396.6z"/>
		<path class="st4" d="M261.7,69.8c-0.8-0.3-2.2-0.6-3-1.3c-3.1-3-2.9-6.5,0.3-9c4.2-3.2,6.6-11.9,14.2-6.6c4.5,3.1,1.5,7.1-1.7,9.9
			C268.5,65.4,266.5,69.2,261.7,69.8z"/>
		<path class="st8" d="M203.8,63.4c3.3,0.2,12.5,9.5,12.7,12.7c0.2,4-4.1,7.2-7.6,5.3c-4.3-2.4-8.1-5.9-10.3-10.4
			C196.6,67.2,199.7,63.2,203.8,63.4z"/>
		<path class="st4" d="M286.1,89c-0.1,3.6-1.9,5.7-5.4,5.9c-3,0.1-5.2-1.7-5.6-4.8c-0.4-3.4,1.6-5.7,5-6.1
			C283.6,83.6,285.5,85.8,286.1,89z"/>
		<path class="st4" d="M67.3,92.1c-0.3,3.4-2,5.6-5.6,5.5c-3.1,0-5.2-1.8-5.4-4.9c-0.2-3.4,1.7-5.6,5.2-5.9
			C65.1,86.5,66.8,88.7,67.3,92.1z"/>
		<path class="st9" d="M337.6,237.6c0.1,2.6,1.2,4.7,3.4,6.2c10.2,1.2,11.7,3.9,6.9,12.4c-4.7,2.2-9.8,1.1-14.7,1.4
			c-4.1,0.2-6.6,1.6-6.7,6.1c0,9.7-0.2,19.3,0.1,29c0.1,2.2,0.3,5,2.9,5.4c3.2,0.5,3-2.7,3.5-4.7c1.2-4.2,3.5-4.5,6.5-2.1
			c3.9,3.1,7.7,6.3,10,10.9c1,3.5,1.2,7-1.3,10.1c-2.5,0.1-5,0.4-7.4,0.4c-83.9,0-167.7-0.1-251.6,0.2c-6.4,0-8.4-1.2-8.2-8
			c0.6-17.9,0.4-35.8,0-53.7c-0.1-5.9,1.5-7.4,7.4-7.4c74.4,0.2,148.7,0.1,223.1,0.2c4.6,0,9.2,0.5,11.2-4.9
			C327.9,238.5,333,240.1,337.6,237.6z"/>
		<path class="st10" d="M150.7,177.9c-0.1-3.9-0.4-7.8-0.3-11.7c0-4.2-1.4-7.1-5.8-8c0-4.8,0-9.7,0-14.5c6.7-1.8,6-7.2,5.6-12.1
			c-0.4-5.1,1.1-6.9,6.5-6.7c13.4,0.5,26.9,0.4,40.4,0.6c2.6,7.5-1.3,19.3-8.1,24.5c-3.7-0.5-4-3.9-5.4-6.4
			c-1.1-1.9-1.9-4.2-4.5-4.4c-3-0.2-4.3,2.2-5.3,4.4c-3.9,8.2-6.7,16.9-10,25.4c-1.3,3.2-2.4,6.5-5.6,8.4
			C155.8,178.2,153.4,179.8,150.7,177.9z"/>
		<path class="st11" d="M378.5,125.4c10.4-0.9,10.4-0.9,10.4,8.8c0,16.6-0.2,33.3,0.1,49.9c0.1,4.6-1.4,7.3-5.2,9.6
			c-6,3.6-11.9,7.4-17.4,11.6c-4.1,3.1-7.4,3.8-11.7,0.2c-4-3.3-8.4-6.4-13.1-8.6c-8.4-4-11.6-10.1-9.4-19
			c7.4-3.3,13.8-9.2,22.6-9.1c2,2.5,1.2,5.7,2,8.6c0.5,1.8,1.2,3.4,3.4,3.4c2.1,0.1,3-1.5,3.6-3.2c0.3-0.7,0.5-1.4,0.5-2.2
			c-1-10.7,2.2-20,8.6-28.5c2-2.7,1.6-6.2,1.6-9.4C375.4,133.3,375.6,128.9,378.5,125.4z"/>
		<path class="st12" d="M188.5,149.8c5.5-7.2,7.8-15.5,8.6-24.3c10.1-0.9,10.1-0.9,10.1,9.2c0,16.6-0.1,33.2,0.1,49.8
			c0.1,4.2-1.1,6.8-4.8,9c-6.8,4.1-13.3,8.6-19.8,13.2c-2.8,1.9-4.9,2.3-7.8,0.1c-5-3.7-10-7.5-15.5-10.2c-8.4-4-10.6-10.2-8.6-18.6
			c2.5-0.6,5.1-1.1,7.6-1.7c5.5,5.6,5.5,5.6,11.6-0.3c4.5-4.4,14.6-3.9,18.6,1.1c1.5,1.9,2.7,5,5.7,3.3c3.1-1.7,1.6-4.8,0.7-7.3
			c-1.7-4.9-3.7-9.8-5.4-14.6C188.4,155.6,186.8,152.8,188.5,149.8z"/>
		<path class="st13" d="M105.7,125.4c10.5-1,10.5-1,10.5,9.3c0,16.6-0.1,33.2,0.1,49.9c0.1,4.2-0.8,7.1-4.8,8.9
			c-1.6,0.7-2.9,1.9-4.4,2.8c-6.5,4.1-13.4,13-19.2,11.5c-9.8-2.7-18.1-10.8-27.1-16.6c-1.5-1-1.6-2.4-1.6-3.9
			c0-20.1,0-40.2,0.1-60.3c0-0.5,0.8-1,1.2-1.6c2.5,2.6,2.2,5.9,2.2,9.1c0.1,10.6,0.2,21.1-0.1,31.7c-0.2,5.6,1.6,8.4,7.5,7.8
			c4.4,8.6,12.2,8.8,20.2,7.5c8.4-1.3,13.9-9.2,10.7-16.9c-2.9-7-2.1-13.9-2.5-21C102.6,138.1,102.2,131,105.7,125.4z"/>
		<path class="st13" d="M287.1,125.4c10.8-1,10.8-1,10.8,9.2c0,16.7-0.1,33.3,0.1,50c0.1,4.2-0.8,7.2-4.8,8.9
			c-0.7,0.3-1.2,0.8-1.9,1.2c-7.3,4.6-14.6,9.3-21.9,13.9c-8.5-5.6-17.1-11.2-25.6-16.7c-1.9-1.2-2.8-2.6-2.7-4.9
			c0.1-20.1,0.1-40.3,0.1-60.4c0-0.3,0.6-0.7,1-1c2.5,2.6,2.2,6,2.2,9.2c0.1,10.4,0.3,20.9-0.1,31.3c-0.2,5.7,1.8,8.4,7.6,7.8
			c4.6,8.5,12.2,8.8,20.4,7.4c8.8-1.5,14-8.8,10.6-16.9c-3-7.1-2.2-14-2.3-21C284.2,138.1,283.8,131.1,287.1,125.4z"/>
		<path class="st14" d="M354.3,168.7c-7.3,3.3-13.8,8.5-22.1,9.1c-0.1-16.1-0.1-32.3-0.3-48.4c0-2.9,0.4-4.6,4-4.5
			c14.2,0.3,28.4,0.4,42.6,0.5c0.1,4.3-0.9,8.3-2.7,12.2c-4.6,0.9-7.9,3.2-10.5,7.4c-3.2,5.2-5.7,5-9.8,0.2
			c-0.3-0.4-0.6-0.8-0.9-1.2c-1.9-2.1-3.5-6.4-6.7-4.4c-4,2.6-0.7,6.2,0.9,9.1c1.7,3,4.1,5.7,5.6,8.8
			C356.1,161.3,357.6,165,354.3,168.7z"/>
		<path class="st9" d="M135.5,109.3c-7.1-2.6-13.1-7-17.8-12.8c-4.1-5-5.6-10.7-1.5-16.3c3.9-5.5,9.5-6.9,15.7-3.8
			c3.4,1.7,6.1,1.2,8.7-1.5c1.5-1.6,3-3.3,5.6-3.2c3.1-1.4,5.1-0.6,6.2,2.8c3.2,9.7-4.3,29-13.3,34.2
			C137.9,109.3,136.7,109.7,135.5,109.3z"/>
		<path class="st15" d="M252.4,174.9c-10.3,3-10.3,3-10.3-7.8c0-13.8,0-27.6-0.1-41.3c15-1.5,30-0.8,45-0.3c0,6.6-0.2,13.2-5.7,18.1
			c-5.8-1.8-10.8-6.1-17.5-5.4c-6.9,0.7-8.8,2.1-9.1,9c-0.2,6.5,0,12.9-0.1,19.4C254.6,169.5,255.1,172.6,252.4,174.9z"/>
		<path class="st16" d="M70.9,174.8c-10.2,3.2-10.2,3.2-10.2-7.9c0-13.8,0-27.6-0.1-41.5c15-0.9,30-0.8,45.1-0.1
			c-0.5,6.5-0.3,13.3-5.9,18.1c-5.5-1.3-9.9-5.6-16.1-5.4c-8.3,0.2-10.2,1.6-10.4,9.9c-0.1,6.2,0.1,12.4-0.1,18.6
			C73.2,169.5,73.7,172.7,70.9,174.8z"/>
		<path class="st17" d="M135.5,109.3c11.2-8,15.8-19,15.3-32.5c-0.1-3.4-1.3-5.1-4.7-5c9-2.3,16.2,2.9,15.5,11.9
			c-0.9,12.3-9.1,20.4-17.6,28C141.2,114.1,138.1,110.9,135.5,109.3z"/>
		<path class="st18" d="M374.5,335.5c-6.2,0-12.5,0-18.7,0c-4.2,0-8.2,1-8.2-6c0-6.7,4-5.4,7.7-5.4c4.2,0,8.5,0,12.7,0
			c8.7-0.1,10.1-1.3,10.1-9.8c0.1-13.9,0.2-27.8-0.1-41.7c-0.1-4.7,1.4-6.2,5.9-5.8c4.2,0.3,8.5,0.2,12.7,0c4.5-0.2,5.4,1.8,3.4,5.3
			c-11.2,19.4-11.2,38.7,0,58c2.5,4.3,0.5,5.6-3.9,5.5C389,335.3,381.8,335.5,374.5,335.5z"/>
		<path class="st19" d="M346.5,255.8c4-7.3,3.2-9-5.4-12c6,0,11.9,0.5,17.9,0s8.1,1.1,8,7.5c-0.4,18.3-0.3,36.6,0,54.9
			c0.1,5.1-1.1,7.3-6.5,6.6c-3.9-0.5-7.9-0.3-11.9-0.5c0-3.4,0-6.8,0-10.2c5-3.7,5.2-7.4,0.8-12c-2.5-2.6-4.4-5.7-1.1-9.7
			c7.2-8.9,6.9-12.1-0.2-21.3C347.2,258.1,346.5,257.1,346.5,255.8z"/>
		<path class="st20" d="M276.4,357.1c-4.6-4-7.4-9.1-9.4-14.7c-2.1-6.1-1.7-11.9,4-15.9c5.6-4,11.2-3.2,16.1,1.7
			c2.6,2.6,5.5,3.3,8.7,1.7c3-1.5,6.1-1.8,9.3-0.8c2.9,5.8-1.4,9.5-4.2,13.2C294.7,350.3,287.3,356.6,276.4,357.1z"/>
		<path class="st21" d="M276.4,357.1c9.7-4,18.9-8.7,24.7-18c1.9-3.1,4.1-6.2,4-10.2c9.4,4.5,11.6,12.2,5.4,20.4
			c-5.9,7.8-14.2,12.7-23.2,15.8C281.3,367.1,279.6,360.3,276.4,357.1z"/>
		<path class="st22" d="M335.5,75.1c-4.2-4.1-7.1-9-8.8-14.4c-1.9-6.1-1.3-12,4.7-15.7c5.5-3.4,11-2.8,15.5,1.9
			c2.9,3,5.8,3.2,9.4,1.4c3.2-1.6,6.6-2.2,9.9,0c-0.3,10.3-7.8,16-14.7,21.6C347.1,73.4,342.1,77.3,335.5,75.1z"/>
		<path class="st23" d="M335.5,75.1c15.4-3.1,24.5-13.3,30.7-26.8c8,4.8,9.8,10.9,5,18.3c-5.8,8.9-14.7,14.2-24.4,17.2
			C340.9,85.6,339,78.5,335.5,75.1z"/>
		<path class="st24" d="M144.6,398.8c-7.5-2.5-13.7-6.9-18.8-12.7c-4.5-5-6.2-10.9-2.2-17c3.9-5.8,9.6-6.6,15.8-3.9
			c3.4,1.5,6.1,1.1,8.7-1.6c2.7-2.8,5.9-4.6,10-3.6C163.8,372.9,157.1,392.3,144.6,398.8z"/>
		<path class="st25" d="M144.6,398.8c10.7-10.8,15.4-23.6,13.5-38.7c8.6,1.5,12.4,6.5,10.7,15c-2.1,10.7-9.5,18.2-17.2,25.3
			C149.1,402.9,146.8,400.2,144.6,398.8z"/>
		<path class="st2" d="M256.3,282.2c-1.6,4.9-3.2,9.8-4.8,14.7c-1,3.2-3,5.1-6.5,5c-3.5-0.2-5.4-2.2-6.1-5.5
			c-2.4-11.4-4.8-22.8-7-34.3c-0.7-3.3,0.6-6,4.1-6.9c4-0.9,6.2,1.3,7,4.9c1,4.3,1.7,8.8,2.7,13.7c3.5-3.3,3.4-7.8,4.8-11.6
			c1.3-3.3,1.7-7.1,6.3-7.2c5-0.1,5.7,3.9,6.8,7.5c1.1,3.5,2.3,6.9,4.8,10.4c0.8-4.1,1.6-8.3,2.5-12.4c0.8-3.5,2.6-6.2,6.7-5.4
			c4.3,0.8,5.3,3.9,4.4,7.9c-2.2,10.7-4.5,21.4-6.5,32.1c-0.7,3.8-2.2,6.6-6.6,6.7c-4.1,0.1-5.6-2.7-6.7-5.9
			c-1.5-4.6-2.9-9.3-4.4-13.9C257.3,282.1,256.8,282.2,256.3,282.2z"/>
		<path class="st2" d="M203,302c-13-0.1-23.7-11.1-23.4-23.9c0.3-12.9,11.2-23.3,24.3-23.2c13.1,0.2,23.4,10.8,23.3,24
			C226.9,291.9,216.3,302.1,203,302z"/>
		<path d="M346.5,255.8c11.2,8.5,12,16.4,2.2,26.1c-2.1,2.1-1.7,3-0.2,4.6c1.4,1.4,2.7,2.9,3.9,4.5c4.9,5.9,3.7,9.2-3.9,11.1
			c-5-2.5-7.2-8.1-11.7-11.2c-0.4,0.4-0.9,0.8-1,1.1c-0.4,4.3,0.8,10-6.1,9.7c-6-0.3-5.2-5.5-5.2-9.7c0-9.7,0.2-19.4-0.1-29
			c-0.1-5.6,2.1-8.5,7.9-8.2C337,255.1,341.7,255.5,346.5,255.8z"/>
		<path d="M171.8,279.1c0,5.2-0.1,10.4,0,15.7c0.1,4-1.2,7.1-5.6,7.1c-4.7,0-5.4-3.5-5.4-7.3c0-1,0-2,0-3c0-7.1-6.3-10.9-12.5-7.7
			c-3,1.6-1.3,4.4-1.6,6.7c-0.7,4.5,2,11.4-5.9,11.2c-7.1-0.2-5-6.7-5.1-11.1c-0.2-9.4,0-18.9-0.1-28.3c0-4,1-7.2,5.6-7.2
			s5,3.5,5.7,7.2c0.6,3.5-4,9.5,4.5,10c6.8,0.4,11.1-0.5,9.6-8.9c-0.7-3.8-0.1-8.1,5.1-8.2c5.6-0.2,5.9,4.1,5.9,8.3
			C171.7,268.7,171.8,273.9,171.8,279.1z"/>
		<path class="st26" d="M110.4,302c-5.8,0.1-10.7-2.1-14.9-5.8c-2.8-2.5-3.6-5.6-1.2-8.5c2.3-2.7,5.3-2.6,7.9-0.3
			c2.6,2.2,5.4,3.7,8.7,3.7c2,0,4.2-0.6,4.8-2.8c0.7-2.6-1.8-3.2-3.4-4c-3.4-1.6-7-2.6-10.3-4.3c-9.3-4.7-9.8-16.6-1.1-22.3
			c6.1-4,17.8-2.9,23.1,2.3c2.2,2.1,3.1,4.5,1.3,7.3c-1.8,2.8-4.5,3-7.2,1.9c-3.8-1.5-9.2-5.7-10.9-1c-1.5,4.2,5.9,4,9.3,5.6
			c8.3,3.9,12.2,9.7,10.6,16.6C125.5,297.5,119.1,302.1,110.4,302z"/>
		<path class="st2" d="M290.1,278.5c0-5.5,0.1-10.9,0-16.4c-0.1-5,2.4-7.3,7.3-7.2c4.5,0,9-0.1,13.4,0.1c3.5,0.1,5.8,2.2,5.8,5.5
			c-0.1,3.3-2.4,4.8-5.8,5.6c-3.1,0.7-8.5-3.3-9.1,2.6c-0.7,7.1,5.6,3.3,8.7,4.2c3,0.9,5.1,2.4,5.1,5.5s-2,5-5.1,5.4
			c-1.5,0.2-3,0.1-4.5,0.1c-2.4-0.1-4.4-0.1-4.5,3.3c-0.1,3.7,2,3.9,4.8,3.8c1.7-0.1,3.5,0,5.2,0.1c3.3,0.2,5.1,2.4,5.2,5.3
			c0,2.9-1.8,5.3-5,5.4c-5.5,0.2-11,0.3-16.4-0.1c-3.9-0.3-5.1-3.4-5.1-7C290.1,289.4,290.1,283.9,290.1,278.5z"/>
		<path class="st0" d="M188.5,149.8c3,8.1,5.8,16.3,9,24.4c1.5,3.7,1.7,7-2.3,8.9c-4.2,2-6.9-0.7-7.9-4.3c-1.3-5-5.1-3.9-8.3-3.8
			c-3.2,0.1-7.3-1.8-8.8,3.2c-1,3.4-2.9,6-6.9,5.4c-4.1-0.6-4.3-4.3-5.1-7.4c5.5-9.8,8.2-20.6,12.6-30.9c1.6-3.8,2.4-8.7,7.7-8.9
			c5.4-0.2,6.4,4.6,8,8.5C187.2,146.6,187.8,148.2,188.5,149.8z"/>
		<path class="st27" d="M354.3,168.7c1.2-5-0.2-9.2-3.3-13.2c-2.2-3-4.2-6.1-6.2-9.3c-2.1-3.3-2.6-6.7,1.3-9
			c3.6-2.2,6.1,0.1,8.1,2.9c0.1,0.2,0.2,0.4,0.4,0.6c5.7,7.9,5.9,8,11.1,0.2c2.6-3.9,5.5-5.6,9.9-3.3c3,4.4,0.9,8.1-1.8,11.5
			c-6,7.4-9.3,15.5-7.9,25.3c0.6,4.4-0.1,9.3-5.9,9.1c-5.2-0.1-5.6-4.7-5.5-8.9C354.7,172.7,354.4,170.7,354.3,168.7z"/>
		<path class="st28" d="M70.9,174.8c0.1-10.2,0.3-20.4,0.2-30.5c-0.1-5.7,2.4-8,8.1-8.1c7.9-0.1,15.6-0.2,20.7,7.4
			c1,3.6,2.4,7.2,0.6,10.9c-1.3,2.7,0.6,4.1,1.7,6c5.9,10.7-0.5,22.3-12.7,23.3c-3,0.2-6-0.2-9,0.1
			C73.7,184.5,70.8,181.4,70.9,174.8z"/>
		<path class="st26" d="M252.4,174.9c0.1-9.9,0.4-19.8,0.2-29.8c-0.1-6.3,2.5-8.9,8.9-9c7.7,0,15.1,0,19.9,7.4c1,2.8,2,5.8,1.2,8.7
			c-0.9,3.3-0.2,5.9,1.5,8.9c4.9,8.6,0.8,18.5-8.6,21.7c-5.8,1.9-11.9,1.2-17.8,0.7C252.9,183.1,252.8,178.6,252.4,174.9z"/>
		<path class="st29" d="M203.1,291c-6.7-0.2-12.1-5.9-12-12.7c0.1-7.1,6-12.7,13.1-12.3c6.7,0.4,12.1,6.3,11.8,13
			C215.6,285.7,209.7,291.2,203.1,291z"/>
		<path class="st30" d="M344,269.7c-0.4,2.7-2.2,3.6-4.7,3.8c-3.1,0.3-3.8-1.1-3.8-3.9s0.9-4.1,3.9-3.8
			C341.9,266.1,343.7,267.1,344,269.7z"/>
		<path class="st31" d="M178.1,157.7c2,1.8,3.7,3.5,1.7,5.6c-0.4,0.5-2.1,0.5-2.6,0C174.8,161.1,178.8,159.8,178.1,157.7z"/>
		<path class="st32" d="M86.4,164.2c3.8-0.2,6.9,0.4,6.8,4.3c-0.1,3.9-3.6,3.9-6.6,4s-4.5-0.8-4.6-4.1
			C81.9,164.7,83.5,163.6,86.4,164.2z"/>
		<path class="st20" d="M85.9,152.8c-1.9,0.1-3.6-0.1-3.6-2.6s1.8-2.5,3.6-2.5c1.9,0,3.8,0.3,3.8,2.6
			C89.7,152.5,87.8,152.9,85.9,152.8z"/>
		<path class="st33" d="M268.2,172.4c-2.8,0.4-4.1-0.7-4.2-4.1c-0.1-3.4,1.4-4.2,4.4-4.1c3.1,0.2,6.5,0.3,6.3,4.4
			C274.6,172.3,271.4,172.4,268.2,172.4z"/>
		<path class="st34" d="M271.5,150.5c-0.8,2.5-2.8,2.4-4.8,2.4c-1.9,0-2.6-1-2.5-2.8c0.1-2.6,2-2.4,3.7-2.3
			C269.8,147.8,271.3,148.3,271.5,150.5z"/>
	</g>
</g>
</svg>
