<?xml version="1.0" encoding="utf-8"?>
<!-- Generator: Adobe Illustrator 26.0.3, SVG Export Plug-In . SVG Version: 6.00 Build 0)  -->
<svg version="1.1" id="Layer_1" xmlns="http://www.w3.org/2000/svg" xmlns:xlink="http://www.w3.org/1999/xlink" x="0px" y="0px"
	 viewBox="0 0 426.4 426.4" style="enable-background:new 0 0 426.4 426.4;" xml:space="preserve">
<style type="text/css">
	.st0{fill:#090708;}
	.st1{fill:#070809;}
	.st2{fill:#9AC3F7;}
	.st3{fill:#C7ACE5;}
	.st4{fill:#DE7E84;}
	.st5{fill:#DAC6EE;}
	.st6{fill:#DA626D;}
	.st7{fill:#D7616B;}
	.st8{fill:#D15F69;}
	.st9{fill:#B48FD9;}
	.st10{fill:#7DB0F5;}
	.st11{fill:#7BADF1;}
	.st12{fill:#060708;}
	.st13{fill:#060506;}
</style>
<g>
	<g>
		<path class="st0" d="M39.5,131.5c-3.3-2.5-3.4-5.4-1.9-9.2c10.7-28,21.3-56,31.7-84.1c3.2-8.7,10.3-12.6,17.8-16.4
			c2.5,0,5,0,7.5,0c21,8.2,25.2,18.1,16.9,40c-1.9,5.1-3.8,10.2-5.8,15.3c-4.8,12.7-4.8,12.7,7.7,17.5c6.5,2.5,13.2,4.5,19.4,7.5
			c4.7,2.2,6.3,0.6,7.8-3.7c3.3-9.6,7-19.2,10.7-28.6c5.3-13.2,18.1-19.3,30.7-14.8c12.7,4.6,18.8,18.2,13.9,31.9
			c-3.6,10.1-7.5,20-11.4,29.9c-1.4,3.6-1.2,5.3,3.5,5.2c8.7-0.3,17.4-0.2,26.1,0c35.8,1.2,60.1,36.3,48.4,70.1
			c-1.5,4.3-1.1,6.8,1.7,10.5c14.7,19.4,16.7,40.4,6.4,62.5c-2,4.4-5,6.8-10,4.8c-3-3.9-1.2-7.3,0.5-11.1c8.3-17.8,5.5-38.1-7.9-52
			c-4.7-4.9-5.5-8.6-2.6-15c10.6-23.1-2.1-50.4-25.7-56.7l0,0c-0.8-1.2-2-1.2-3.3-1c-16-3-32.2-1.6-48.2-1
			c-6.8,0.2-10.4,6-10.4,14.1c-0.1,41.4-0.1,82.8,0,124.2c0,9.6,4.7,14.2,14.2,14.3c12.2,0.1,24.3,0,36.5-0.2
			c5.7-0.1,11.5,0.8,16.9-1.8c1.3,0.1,2.5,0.1,3.3-1.1l0,0c3.3-0.1,6-1.9,8.7-3.5c4.1-2.5,7.3-1.8,9.9,2.2c0.3,3.7-1.5,5.9-4.7,7.7
			c-6.3,3.6-13,5.7-20.3,7.3c5.1,10.4,9.4,20.7,12.5,31.4c1,3.4,1.3,6.4-1.4,8.9c-2.5,2.4-5.4,2.2-8.3,1c-5.3-2.2-12-3.5-15.1,1.1
			c-3.4,5.1-0.2,11.6,3.8,16.3c7.6,9.1,10,19.2,6.5,30.6c-2.3,7.5-8.3,12.2-12.9,17.9c-8,0.4-11-2.1-8.6-7.1c0.7-1.5,2.2-2.7,3.4-4
			c11.1-11.8,11.5-18.7,2.1-31.5c-3.2-4.3-5.4-8.9-6-14.3c-1.1-9.8-5.2-12.8-14.5-10c-3.7,1.1-7.1,2.7-10.4-0.6
			c-3.2-3.2-1.7-6.8-0.7-10.5c2.6-9.7,7.1-18.8,11-28.7c-3.8,0-6.8,0-9.7,0c-18,0-27.6-9.5-27.6-27.7c0-14,0-28,0-42
			c0-6.6,0-13.1,0-21.5c-4,5.9-7,10.1-11.7,11.8c-4.3,1.5-4,4.1-3.3,7.5c2.3,11.1,1.5,22.4,1.2,33.6c-0.1,3.4-1.1,6.5-4.4,8.1
			c-3.4,1.6-6.1,0-8.8-2.3c-1.8-1.6-4-3.1-6.2-4c-6.5-2.5-8.6-0.9-8.9,6.1c-0.2,6.1,2,11.2,6,15.6c5.4,5.9,10.5,12,16.3,17.5
			c11.1,10.5,15.5,23.1,14.9,38.3c-0.6,14.1,3,17.7,17.2,19.8c14.6,2.2,23.3,12.2,23.5,27.2c0.1,3.5-0.3,7,0.1,10.5
			c0.6,4.5-1.3,7.4-4.8,9.7c-1,0-2,0-3,0c-4-4-3.2-9.1-3.2-14c0-16.9-2.3-19.7-18.6-22.6c-13.6-2.4-23.3-12.5-22.4-26.5
			c1.2-16.5-4.4-29-16.4-39.6c-4.5-3.9-8.3-8.7-12.2-13.1c-6.4-7.3-9.3-15.7-8.3-25.5c0.9-9.1-2.9-13.9-11.9-14.4
			c-3.8-0.2-7.6,0.1-9.6-4.1c-1.9-4.2,0.6-7.1,2.9-10.1c7.1-9,14.4-17.9,23.7-24.7c2.6-1.9,3.8-3.4,2.5-6.7
			c-2.5-6.2-1.3-12.2,1-18.2c4.1-10.4,7.8-21,11.9-31.4c1.5-3.8,1.9-6-2.9-7.6c-9.4-3.1-18.7-6.7-27.8-10.6c-3.8-1.6-5.1-0.6-6.4,3
			c-3.9,11-8.1,21.9-12.4,32.8c-5.4,14.8-18.6,21.2-31.5,16.2c-12.8-5-18.2-18.7-12.8-32.9c1.9-5,2.2-12.1,10.7-10.7
			c4.8,4.6,1.5,9.2,0,13.8c-3.3,9.6-1.1,16.8,6.3,19.5c7.6,2.7,14-0.9,17.6-10.4c5-13,9.9-26,14.7-39.1c1.9-5.2,4.9-6.9,10.3-4.7
			c14.1,5.6,28.2,11,42.4,16.1c6,2.2,7.5,5.5,5.2,11.4c-5,12.7-9.6,25.6-14.5,38.4c-1.8,4.8-3.2,9.5,0.3,14.1
			c7.3,9.2,17.6,7.9,22.7-2.5c8.9-18.3,12.4-37.4,10.2-57.5c1.5-3.9,3.1-7.8,4.6-11.7c3.7-3.3,7.1-7,12.1-8.3
			c2.4-0.7,3.4-2.6,4.2-4.8c4.3-11.7,8.9-23.2,13.1-34.9c3-8.4,0.9-13.1-7.2-17.7c-9.5-1.5-13.4,0.5-16.8,9.1
			c-4.4,11.1-8.5,22.3-12.8,33.4c-3.5,9.3-4.8,9.9-14.3,6.3c-13-4.9-25.8-10.1-38.9-14.8c-6.8-2.4-8-6-5.4-12.5
			c4.9-12.2,9.5-24.6,13.8-37c2.3-6.8-1.1-13.4-7.4-15.8c-6.3-2.5-13,0.3-16.2,6.7c-0.9,1.8-1.4,3.7-2.1,5.6
			C68,73,58.1,99,48.4,125.1C46.8,129.3,44.9,132.5,39.5,131.5z M94.5,236c-3.2,1.9-2.1,2.9,0.5,4.3c8.3,4.5,15.9,9.8,26.2,10.1
			c4.5,0.1,6.4,0.7,6-4.4c-0.6-6.7-0.8-13.4-1.7-20c-0.4-2.9-0.7-6.8-5.4-6.6c-3.3-3.2-6.3-2.6-9.7,0.1
			C104.6,224.5,98.9,229.6,94.5,236z M209.6,297.6c-4.8-1.4-8,0.2-10.1,4.8c-3,6.2-6.5,12.2-7.9,19c-0.3,0.9-0.7,1.7-1,2.6
			c6.9,0.7,13.4,5.3,20.2,3.7c5.2-1.2,10.5-2.3,16.1-3.2c-2.5-8.8-6.1-16.6-10.5-24.1C214.8,297.5,212.6,296.6,209.6,297.6z"/>
		<path class="st1" d="M365,71.4c4.3-2.3,7.3-0.4,10.3,2.9c15.1,16.8,25,36,28.4,58.5c0.2,1.2-0.2,2.5,1.4,3c0,7,0,14,0,21
			c-0.4,0.2-1.1,0.4-1.1,0.7c-3.5,19.1-12.4,34.8-28.6,46.8c11.3,7.2,20.6,15.8,29.8,24.4c0,2,0,4,0,6c-2.5,2.5-5.3,4-9,4.6
			c-10.1,1.6-14.7,9.3-12.1,19.1c1.2,4.6,2.4,9.1,3.5,13.8c3.9,17.7-8.5,33.1-26.7,33.1c-4.4,0-8.9-0.7-13.2,1.1
			c-7.4,3.1-11,8.9-12.5,16.4c-3.4,17.1-14.3,26.2-31.7,26.8c-14.9,0.5-19.9,4-25,17.7c-2.2,5.7-5.4,10.6-10.2,14.5
			c-2.7,2.1-5.5,2.5-8-0.1c-2.5-2.7-2-5.7,0.6-7.9c4.6-3.9,6.5-9.1,8.7-14.5c5.7-13.5,16.3-20.3,30.8-20.8
			c16.1-0.5,20.7-4.2,24.4-20.3c3.5-15.4,17.1-25.4,33-24.2c14.5,1.1,22.1-7.8,18.5-21.9c-1-4.1-2.2-8.2-3.4-12.2
			c-1.9-6.6-4.1-7.4-9.4-3.1c-3.5,2.8-5.6,8.6-11.5,6.3c-6.1-2.3-5.3-8.6-6.3-13.5c-1.6-8.5-2.5-17.3-3.6-26c-1.6-0.3-2.9,1-4.4,1.8
			c-13.2,6.4-26.9,2.6-33.8-10.4c-19.1-36.1-38-72.2-56.7-108.5c-6.5-12.5-2.1-25.7,10.4-32.6c10.9-6,21.8-11.9,33-17.3
			c18.6-9.1,37.7-10,57-1.9c3.7,1.6,6.7,3.4,6.1,8.1c-2.7,5.2-6.6,3.8-10.8,2.1c-15.8-6.5-31.5-5.8-46.9,1.5
			c-7.2,3.4-14.1,7.2-21.1,10.9c-23.5,12.3-23.7,13-11.3,36.6c17,32.3,34.1,64.6,51.1,96.9c6,6.9,10.8,8.3,18.1,4.4
			c10.8-5.6,21.5-11.4,32.1-17.4c10.2-5.8,18.2-14.1,22.8-25c11.7-27.9,5.6-53.5-10.6-77.7l0.1,0.1c-0.6-0.9-1.2-1.9-1.8-2.8
			c-2.1-4.3-5.3-7.7-8.6-11.1C363.6,78.4,362.5,75.2,365,71.4z M362.2,244L362.2,244c12,0.8,17.4-10,26.8-14.9
			c-6.6-6.5-13.5-11.6-20.9-16c-2.8-1.6-5.4-2.4-7.9,0.5c-4.8,0.8-6.3,3.8-6.2,8.4c0.2,7.4,0.5,14.8,1.9,22.1
			c0.4,1.9,0.7,3.7,3.1,1.7C360.1,245.2,361.1,244.6,362.2,244z"/>
		<path class="st2" d="M365,71.4c-2.5,3.8-1.4,6.9,1.6,9.9c3.3,3.3,6.5,6.8,8.6,11.1c0,1.3,0.4,2.3,1.8,2.8l-0.1-0.1
			c-0.4,2.4,0.6,4.3,1.4,6.4c5.6,14.9,8,30.4,5,46.1c-3.8,19.4-13.7,35-31.8,44.4c-12.3,6.3-23.5,14.8-37,18.7
			c-17-32.3-34.1-64.6-51.1-96.9c-12.4-23.6-12.2-24.3,11.3-36.6c7-3.7,14-7.6,21.1-10.9c15.4-7.2,31.1-7.9,46.9-1.5
			c4.2,1.7,8.1,3,10.8-2.1C357.3,65.5,361.2,68.5,365,71.4z M368,144.8c-0.5-15-6.2-28-15-39.8c-11.6-15.4-29-26.8-53.1-12.1
			c-1.9,1.2-3.9,2.2-5.9,3.1c-6.4,2.7-7.7,6.4-4.2,12.8c10.9,20.1,21.3,40.5,32,60.7s7.3,18,26.9,7.9
			C361.8,170.7,368.3,159.7,368,144.8z"/>
		<path class="st3" d="M224.8,135.4c23.6,6.2,36.3,33.5,25.7,56.7c-2.9,6.4-2.1,10.1,2.6,15c13.4,13.9,16.2,34.1,7.9,52
			c-1.7,3.7-3.5,7.2-0.5,11.1c-1.6,4.6-7.3,6.3-8.2,11.5c-2.6-4-5.8-4.6-9.9-2.2c-2.7,1.6-5.4,3.4-8.7,3.5c-0.5-3.7,2.5-5.2,4.5-7.3
			c19-19.4,19.6-52,0.9-71.7c-3.6-3.8-3.9-6.7-2.1-11.1c7.7-19.2,4.5-36.5-9.4-51.7C226.1,139.5,224.2,138.1,224.8,135.4z"/>
		<path class="st4" d="M155.9,131.5c-1.5,3.9-3.1,7.8-4.6,11.7c-1.9,1.5-2.3,3.7-3.1,5.7c-5.2,13.8-10.6,27.6-15.8,41.5
			c-2.5,6.7-7,11.1-14,12.8c-3.5-4.6-2.1-9.3-0.3-14.1c4.8-12.8,9.5-25.6,14.5-38.4c2.3-5.9,0.9-9.2-5.2-11.4
			c-14.2-5.1-28.3-10.5-42.4-16.1c-5.4-2.1-8.4-0.5-10.3,4.7C69.9,141,64.9,154,60,167c-3.6,9.4-10,13.1-17.6,10.4
			c-7.4-2.7-9.7-9.8-6.3-19.5c1.6-4.5,4.8-9.2,0-13.8c1.2-4.3,2.3-8.5,3.5-12.8c5.4,1.1,7.3-2.1,9-6.6c9.7-26.1,19.7-52.1,29.5-78.1
			c0.7-1.9,1.3-3.8,2.1-5.6c3.2-6.4,10-9.2,16.2-6.7c6.3,2.5,9.7,9,7.4,15.8c-4.3,12.4-8.9,24.8-13.8,37c-2.6,6.5-1.4,10.1,5.4,12.5
			c13.1,4.6,25.9,9.8,38.9,14.8c9.5,3.6,10.7,3,14.3-6.3c4.2-11.2,8.4-22.3,12.8-33.4c3.4-8.6,7.3-10.6,16.8-9.1
			c-1.7,12.7-8.3,23.7-11.9,35.7C163.2,111.6,157.2,120.7,155.9,131.5z"/>
		<path class="st5" d="M224.8,135.4c-0.6,2.7,1.3,4.1,2.8,5.7c14,15.2,17.1,32.6,9.4,51.7c-1.8,4.4-1.5,7.3,2.1,11.1
			c18.7,19.7,18,52.3-0.9,71.7c-2,2-5,3.6-4.5,7.3l0,0c-1.3-0.4-2.5-0.1-3.3,1.1c-5.4,2.6-11.2,1.7-16.9,1.8
			c-12.2,0.2-24.3,0.3-36.5,0.2c-9.5-0.1-14.2-4.7-14.2-14.3c-0.1-41.4-0.1-82.8,0-124.2c0-8.1,3.7-13.8,10.4-14.1
			c16.1-0.5,32.2-2,48.2,1C222.3,135.6,223.5,135.9,224.8,135.4L224.8,135.4z M188.5,238.9c0,4.7,0.1,9.5,0,14.2
			c-0.1,4.5,1.8,7.1,6.5,7.1c8.7,0,17.4,0.4,26-0.3c10.7-0.8,18.6-9.8,18.9-20.5c0.3-11.2-7.1-20.4-18.3-21.5
			c-8.8-0.8-17.8-0.5-26.7-0.5c-4.6,0-6.5,2.7-6.4,7.3C188.6,229.5,188.5,234.2,188.5,238.9z M204.1,191.4c3,0,6,0.2,8.9,0
			c8.6-0.6,15-6.8,15.7-15.1c0.6-8-5.1-15.4-13.6-17.1c-3.1-0.6-6.4-0.5-9.6-0.6c-19.6-0.4-17,0.5-17,17
			C188.4,192.2,187.3,191.7,204.1,191.4z"/>
		<path class="st6" d="M118.4,203.3c7-1.7,11.5-6.2,14-12.8c5.2-13.8,10.6-27.6,15.8-41.5c0.8-2.1,1.3-4.3,3.1-5.7
			c2.2,20.2-1.4,39.3-10.2,57.5C136,211.1,125.7,212.4,118.4,203.3z"/>
		<path class="st7" d="M155.9,131.5c1.3-10.8,7.3-19.9,10.3-30c3.6-12,10.2-23,11.9-35.7c8.2,4.6,10.3,9.3,7.2,17.7
			c-4.2,11.7-8.8,23.3-13.1,34.9c-0.8,2.2-1.8,4.1-4.2,4.8C163,124.5,159.6,128.2,155.9,131.5z"/>
		<path class="st3" d="M191.5,321.3c1.4-6.9,5-12.8,7.9-19c2.1-4.5,5.4-6.1,10.1-4.8c1.8,4.6,3.7,9.1,5.3,13.7
			c3.3,9.4,3.2,9.3-6.7,8.9c-3.9-0.2-7.8-0.8-11.6,1.2C194.9,322.2,193.1,323.9,191.5,321.3z"/>
		<path class="st4" d="M94.5,236c4.4-6.4,10-11.5,15.9-16.4c3.3-2.8,6.4-3.3,9.7-0.1c0,6.5-0.1,12.9-0.1,19.4c0,4.7-1.7,6.5-5.6,2.9
			c-3.8-3.6-8.2-4.2-13-4.1C99,237.7,96.4,238.4,94.5,236z"/>
		<path class="st8" d="M94.5,236c1.9,2.4,4.5,1.7,6.9,1.6c4.9-0.2,9.2,0.5,13,4.1s5.6,1.8,5.6-2.9c0-6.5,0.1-12.9,0.1-19.4
			c4.7-0.2,5,3.7,5.4,6.6c0.9,6.6,1.1,13.3,1.7,20c0.4,5.1-1.5,4.5-6,4.4c-10.2-0.3-17.9-5.6-26.2-10.1
			C92.4,238.9,91.3,237.9,94.5,236z"/>
		<path class="st9" d="M191.5,321.3c1.7,2.5,3.5,0.9,5.1,0.1c3.7-2,7.7-1.3,11.6-1.2c9.9,0.4,10,0.5,6.7-8.9
			c-1.6-4.6-3.5-9.2-5.3-13.7c3-1,5.2,0,6.8,2.7c4.4,7.5,8,15.4,10.5,24.1c-5.7,1-10.9,2-16.1,3.2c-6.9,1.6-13.3-3-20.2-3.7
			C190.8,323.1,191.1,322.2,191.5,321.3z"/>
		<path class="st3" d="M224.8,135.4c-1.3,0.4-2.5,0.2-3.3-1C222.8,134.3,224,134.2,224.8,135.4z"/>
		<path class="st3" d="M230.5,284c0.8-1.2,1.9-1.5,3.3-1.1C232.9,284.2,231.7,284.2,230.5,284z"/>
		<path class="st10" d="M314.5,210.7c13.5-3.9,24.7-12.4,37-18.7c18.1-9.3,28-24.9,31.8-44.4c3-15.7,0.6-31.2-5-46.1
			c-0.8-2.1-1.9-4.1-1.4-6.4c16.3,24.1,22.4,49.7,10.6,77.7c-4.6,10.9-12.5,19.2-22.8,25c-10.6,6-21.3,11.8-32.1,17.4
			C325.3,219,320.5,217.6,314.5,210.7z"/>
		<path class="st2" d="M359,245.8c-2.4,2-2.8,0.2-3.1-1.7c-1.5-7.3-1.8-14.7-1.9-22.1c-0.1-4.6,1.4-7.6,6.2-8.4
			c6.5,2.7,10.9,8.1,16.2,12.4c3.3,2.7,4.8,4.6-1.4,6.3c-5.7,1.6-13.1,2.9-12.8,11.7v-0.1C360.6,243.7,359.4,244,359,245.8z"/>
		<path class="st11" d="M362.1,244c-0.3-8.8,7.1-10.2,12.8-11.7c6.2-1.7,4.7-3.6,1.4-6.3c-5.3-4.3-9.7-9.8-16.2-12.4
			c2.5-2.8,5.1-2.1,7.9-0.5c7.5,4.4,14.4,9.5,20.9,16C379.6,233.9,374.2,244.8,362.1,244z"/>
		<path class="st10" d="M377,95.2c-1.4-0.4-1.8-1.5-1.8-2.8C375.8,93.3,376.4,94.3,377,95.2z"/>
		<path class="st11" d="M359,245.8c0.4-1.8,1.6-2,3.1-1.8C361.1,244.6,360.1,245.2,359,245.8z"/>
		<path class="st12" d="M368,144.8c0.3,15-6.2,25.9-19.4,32.7c-19.6,10.1-16.2,12.3-26.9-7.9c-10.7-20.2-21-40.6-32-60.7
			c-3.5-6.4-2.2-10.2,4.2-12.8c2-0.9,4-1.9,5.9-3.1c24.1-14.8,41.5-3.4,53.1,12.1C361.8,116.8,367.5,129.8,368,144.8z M357.1,144.2
			c-0.9-13.1-6.4-25.3-15.7-35.9c-11.6-13.2-23.6-14.5-38.2-4.6c-2.3,1.6-2.2,2.6-1.1,4.6c10.6,20.2,21.2,40.5,31.9,60.7
			c0.7,1.3,1,2.8,3.8,1.9C349.4,166.9,357,157.4,357.1,144.2z"/>
		<path class="st13" d="M188.5,238.9c0-4.7,0.1-9.5,0-14.2c-0.1-4.6,1.8-7.3,6.4-7.3c8.9,0,17.9-0.3,26.7,0.5
			c11.2,1.1,18.7,10.3,18.3,21.5c-0.3,10.7-8.2,19.7-18.9,20.5c-8.6,0.6-17.3,0.3-26,0.3c-4.7,0-6.6-2.6-6.5-7.1
			C188.5,248.4,188.5,243.6,188.5,238.9z M211.1,228.6L211.1,228.6c-2.7,0-5.4-0.1-8.2,0c-1.4,0-3.4-0.3-3.5,1.7
			c-0.2,5.7-0.1,11.4,0,17.1c0,1.6,1.4,1.9,2.7,1.9c6.2-0.1,12.4,0.2,18.5-0.6c5.6-0.7,8.7-4.8,8.2-10.6c-0.4-5.7-3.9-9-9.6-9.4
			C216.6,228.4,213.8,228.6,211.1,228.6z"/>
		<path class="st12" d="M204.1,191.4c-16.8,0.2-15.7,0.8-15.6-15.8c0.1-16.5-2.6-17.3,17-17c3.2,0.1,6.5,0,9.6,0.6
			c8.5,1.6,14.2,9,13.6,17.1c-0.7,8.3-7.1,14.5-15.7,15.1C210.1,191.6,207.1,191.4,204.1,191.4z M206,180.6c2,0,3.2,0,4.4,0
			c3.9,0,7.1-1.1,6.9-5.7c-0.1-4.3-3.4-4.9-6.8-4.9c-2.2,0-4.5,0.2-6.7,0c-3.5-0.3-4.4,1-4.7,4.6C198.5,181.1,202.2,181.1,206,180.6
			z"/>
	</g>
</g>
</svg>
