<?xml version="1.0" encoding="utf-8"?>
<!-- Generator: Adobe Illustrator 26.0.3, SVG Export Plug-In . SVG Version: 6.00 Build 0)  -->
<svg version="1.1" id="Layer_1" xmlns="http://www.w3.org/2000/svg" xmlns:xlink="http://www.w3.org/1999/xlink" x="0px" y="0px"
	 viewBox="0 0 434 434" style="enable-background:new 0 0 434 434;" xml:space="preserve">
<style type="text/css">
	.st0{fill:#E31F2D;}
	.st1{fill:#FEFEFE;}
	.st2{fill:#E21F2D;}
	.st3{fill:#08B765;}
	.st4{fill:#FCDE30;}
	.st5{fill:#FDD1A3;}
	.st6{fill:#C31926;}
	.st7{fill:#EDF4F5;}
	.st8{fill:#F5A86C;}
	.st9{fill:#FB4754;}
	.st10{fill:#FDD302;}
	.st11{fill:#FA2B3A;}
	.st12{fill:#C21926;}
	.st13{fill:#F7C400;}
	.st14{fill:#46CB8C;}
	.st15{fill:#E7B700;}
	.st16{fill:#C41926;}
	.st17{fill:#08B161;}
	.st18{fill:#E99A58;}
	.st19{fill:#FBFCFC;}
	.st20{fill:#45CA8C;}
	.st21{fill:#08AE5D;}
	.st22{fill:#02C17A;}
	.st23{fill:#09A655;}
	.st24{fill:#3E5858;}
	.st25{fill:#F0B27F;}
	.st26{fill:#08AC5E;}
	.st27{fill:#FBDC2F;}
	.st28{fill:#374848;}
	.st29{fill:#E6B600;}
	.st30{fill:#FCD204;}
	.st31{fill:#F7CE03;}
	.st32{fill:#07AC5E;}
	.st33{fill:#010100;}
	.st34{fill:#F5D72E;}
</style>
<g>
	<g>
		<path d="M393.7,405.5c-117.7,0-235.4,0-353.2,0c-8.8-2.4-11.1-4.8-11.2-14c-0.3-25.3-0.2-50.7-0.1-76c0-6.9,3-12.7,9.8-14.2
			c7.2-1.6,8.1-5.8,8.1-11.8C47,239.1,47,188.6,47,138.2c0-15.4-0.1-30.8,0-46.2c0.1-13.1,5.8-18.9,19-19.7c3.2-0.2,6.5-0.1,9.7-0.1
			c61.3,0,122.7,0,184,0c2.5,0,5,0,7.5-0.1c4.4-0.1,6.3-1.3,4.6-6.4c-3.6-10.6-2-21.7-1.4-32.5c0.4-6.3,4.9-9.8,11.1-10
			c10.7-0.4,21.4-0.4,32.2,0c7,0.3,11.5,3.8,12.4,10.8c1.3,10.8,2.9,21.8-1.9,32.3c-2.1,4.7-0.1,5.8,4,5.8c11.5,0.2,22.9,0,34.4,0.1
			c4,0,8,0,11.9,1.1c7.6,2.2,11.7,7.2,12.3,15c0.2,3.2,0.1,6.5,0.1,9.7c0,62.9,0.1,125.7-0.1,188.6c0,7.3-0.2,13.5,9.5,15.4
			c5.4,1.1,8.2,6.4,8.3,12.1c0.4,26.3,0.5,52.7,0,79C404.6,400.9,402.1,403.2,393.7,405.5z"/>
		<path class="st0" d="M72,313.3c42.6-0.1,85.1-0.2,127.7-0.2c4.7,0,9.2,0.3,10.4-5.8c4.8-3.4,9.7-3.4,14.5,0.1
			c1.5,5.7,5.8,5.8,10.6,5.8c49.6-0.1,99.2,0.1,148.7-0.2c6.4,0,8.6,1.3,8.5,8.1c-0.4,18.6-0.1,18.6-18.5,18.6
			c-25.2,0-50.3-0.1-75.5,0.1c-4.9,0-6.7-1.1-7.3-6.4c-1.2-11.4-10.5-16.2-21.3-11.6c-7.1,3-14.1,6.3-21,9.6
			c-6.5,3.1-11.7,5.7-20.1,1.4c-8.2-4.2-19.5-4.6-28.3,2.3c-2.7,2.1-4.5,1.1-6.7,0.1c-8.4-3.8-16.7-7.7-25-11.6
			c-16.3-7.5-24.1-3.1-26.4,14.7c-9.4,1.6-18.8,0.5-28.2,0.7c-12.4,0.2-24.9-0.1-37.3,0.1c-4.9,0.1-7.1-2-7-6.5
			C70,326.2,67.8,319.3,72,313.3z"/>
		<path class="st1" d="M140.8,99.5c1.6,5.2,5.7,5.4,10.2,5.3c39.6-0.1,79.3,0.1,118.9-0.2c5.9,0,7.6,1.4,7.2,7.4
			c-1.5,22-10.8,41.6-18.7,61.6c-0.5,1.4-1.3,2.5-3.2,2.5c-6.5-0.1-13-0.1-19.4,0c-1.9,0-2.6-1.3-3.3-2.6
			c-5-9.4-12.2-16.8-21.1-23.6c5.5-1.8,8.1-5.1,7.7-10.4c-0.2-2.5,0-5,0-7.5c-0.1-12.5-4.6-17-17.2-17.1c-17.7,0-35.4,0-53.1,0
			c-19.1,0-21.9,2.9-21.8,22.1c0.1,8.7,0.3,9.2,7.5,13c-14.3,10.2-23.3,24-28.1,40.6c-4.1-0.8-3.7-4.3-3.7-7.1
			c-0.3-23.8-0.2-47.6-0.1-71.3c0-5.7,2.6-7.9,8.4-7.4c3.9,0.3,7.9,0.6,11.9-0.4c1.7-1.3,3.1-2.8,3.4-5
			C131.1,96.8,136,97,140.8,99.5z"/>
		<path class="st2" d="M142.4,371.2c2,17.8,9.8,22.1,26.3,14.7c5.9-2.7,11.7-5.3,17.6-8.1c6.1-2.9,11-5,18.7-1.1
			c8.4,4.2,19.5,4.6,28.3-2c2.9-2.2,4.8-1.5,7.3-0.3c9.2,4.3,18.4,8.6,27.7,12.8c12.4,5.6,21.3,0.9,22.9-12.4
			c0.5-3.9,1.8-4.9,5.5-4.9c30.1,0.1,60.2,0.1,90.3,0c3.8,0,5.6,1,5.1,5c-0.8,6.2,1.6,12.7-1.4,18.8c-2.6,1.3-5.4,0.6-8.1,0.6
			c-100.7,0-201.3,0-302,0c-4,0-9.1,1.8-11.2-3.5c-2.4-5.9-2.2-12.1-0.2-18.2c0.5-1.6,2-2.1,3.6-2.1
			C96.2,370.9,119.3,369.6,142.4,371.2z"/>
		<path class="st3" d="M345.5,272.8c-4.8,1.2-5.8,4.5-5.8,9c0.1,6.4,2.2,15.1-1.1,18.7c-4.2,4.6-13.2,1.3-20.1,1.5
			c-10.7,0.3-21.4,0-32.2,0.1c-3.8,0-6-0.6-6.1-5.2c-0.1-5,2.7-4.9,6.2-4.8c10.2,0.1,20.4,0.1,30.7,0c7.4-0.1,10.4-3.2,10.6-10.4
			c0.2-6.5,0.1-12.9,0-19.4c0-6.7-3.5-10.1-10.2-10.1c-10.5-0.1-20.9,0-31.4-0.1c-2,0-4.8,1-5.6-2.1c-0.8-2.9,1.1-3.8,3.4-4.6
			c3.8-1.4,3.8-4.7,3.8-8.1c0-12.2,0.1-24.3-0.1-36.5c-0.1-4.6,0.8-5.9,5.9-4.6c11.9,3,22.3-5,23.6-17.4c0.1-1-0.1-2.1,0.2-3
			c1-2.9,2.8-5.9,5.7-6.2c2.3-0.3,2.3,3.3,3.1,5.2c10.6,23.6,14.6,48.3,13.4,74c-0.2,4.6,0.2,8.6,5.8,9.6
			C349.1,263.1,349.2,268,345.5,272.8z"/>
		<path class="st4" d="M112.4,225.5c20.4-0.1,40.8-0.2,61.2-0.3c2.9,0,4.6,0.5,4.6,4c-0.5,24,0.8,48.1-0.7,72.1
			c-20.8,1.4-41.6,0.3-62.4,0.6c-3.3,0.1-4.3-2.1-4.6-4.7c-0.7-4.9-0.8-9.8,0.2-14.7c0.2-0.8,0.6-1.5,1.2-2.1
			c4.8-0.4,9.7,0.9,14.3-1.8c2.5-1.5,4.8-0.1,5.6,2.9c0.2,1,0.3,2,0.5,2.9c0.5,2.6,0.4,6.1,4,6.2s3.6-3.4,4.2-6
			c1.5-7.4,1.5-7.4,9.3-4.9c2.1,0.7,4.5,2.1,6-0.5c1.5-2.5-0.7-4-2.3-5.6c-6-5.6-6-5.6,0.2-11.7c1.6-1.6,3.6-3.3,2.1-5.7
			c-1.5-2.5-3.9-1.2-6-0.4c-7.9,3.2-7.9,3.2-9.4-5.2c-0.4-2.5-0.7-5.5-3.8-5.6c-3.7-0.1-3.8,3.2-4.3,5.8c-1.4,8.4-1.6,8.7-8.9,5
			c-3.8-1.9-7.3,0-10.9-0.6c-0.7-0.5-1.2-1.2-1.5-2C110.3,244,108.1,234.6,112.4,225.5z"/>
		<path class="st5" d="M224.6,307.3c-4.8,0-9.7,0-14.5-0.1c-0.4-2.2-1.6-3.8-3.5-5c-12.7-1.2-12.7-1.2-12.8-14.5
			c0-10.1-0.2-20.3,0.1-30.4c0.1-3.1-1.1-7.3,3.8-8.5c3,4.8,5.8,9.8,10.6,13.2c14.3,10.1,33.7,4.7,41.3-11.6
			c1.8-3.9,16.7-6.9,19.2-3.8c0.6,0.8,0.6,2.3,0.6,3.5c0,15.6-0.1,31.2,0.1,46.8c0,3.9-1.1,5.2-5,5.1c-10.4-0.2-20.9,0.1-31.3-0.1
			C229,301.8,226,303.2,224.6,307.3z"/>
		<path class="st6" d="M140.8,99.5c-4.9,0-9.7,0-14.6,0.1c-0.9-4.4-3.8-5.9-8.1-5.8c-12.5,0.2-24.9,0-37.4,0.1
			c-10.4,0-13.2,2.8-13.2,13.3c0,61.8,0,123.7,0,185.5c0,1.7-0.1,3.5,0,5.2c0.1,2.5-0.4,4.3-3.6,4.4c-2.9,0-4.1-1.2-3.9-4
			c0.1-1.2,0-2.5,0-3.7c0-66.6,0.1-133.1-0.2-199.7c0-7,2-8.6,8.7-8.6c66.8,0.2,133.6,0.1,200.4,0.1c1.7,0,3.5,0,5.2,0
			c2.3,0,2.9,1.4,2.9,3.4c0,2.2-0.3,4-3.1,4c-2,0-4,0-6,0c-38.9,0-77.8,0-116.7,0C146.7,93.8,142.2,93.7,140.8,99.5z"/>
		<path class="st7" d="M122.9,104.6c-4.1,2.7-8.7,1-13,1.2c-3.3,0.2-5,1.1-5,4.7c0.1,25.7,0,51.3,0.1,77c0,1.1,0.9,2.2,1.4,3.2
			c-0.3,6.7-2.1,13.3-1.2,20c0.3,2.6-0.8,3.6-3.4,3.5c-2-0.1-4,0-6,0c-9.5,0.1-12.4,2.9-12.4,12.6c-0.1,22.6,0,45.2,0,67.8
			c0,1.7,0.1,3.5-0.2,5.2c-0.1,0.7-1.1,1.7-1.9,1.9c-1.4,0.4-2.4-0.6-2.5-2c-0.1-1.7-0.1-3.5-0.1-5.2c0-60.6,0.1-121.2-0.2-181.8
			c0-6.8,2-8.3,8.4-8.1C98.9,105.1,110.9,104.7,122.9,104.6z"/>
		<path class="st1" d="M345.5,272.8c0-4.8,0.1-9.7,0.1-14.5c4.3-0.8,5.2-3.8,5.3-7.7c1-27.1-2.6-53.3-13.4-78.5
			c-8.2-19.1-16.4-38.2-18.2-59.4c-0.5-6,0.3-8.6,7-8c7.7,0.6,15.4,0.4,23.2,0.1c4.4-0.2,6.1,1,6,5.7c-0.1,62.1-0.1,124.1-0.1,186.2
			c0,2,1.1,5.3-2.4,5.1c-3.2-0.2-2.1-3.4-2.1-5.4c-0.1-5-0.2-9.9,0-14.9C351.1,277.1,349.7,274.2,345.5,272.8z"/>
		<path class="st8" d="M197.7,187.9c24.6-0.1,49.2-0.2,73.9-0.4c4.3,0,5.5,1.8,5.5,5.8c-0.2,12.1-0.2,24.3,0,36.4
			c0.1,4.2-1.6,5.1-5.3,4.8c-2.2-0.2-4.5-0.1-6.7,0c-7.8,0.4-13.5,0.2-18-9.1c-7.9-16.5-35.2-19.5-48,2.6c-2.7-0.1-3.2-2.3-3.3-4.1
			c-0.7-11-1-21.9,0.2-32.9C196.1,189.8,196.9,188.8,197.7,187.9z"/>
		<path class="st9" d="M198.8,153.4c2,5,7.5,6.2,11,9.7c3.6,3.7,7.7,6.9,10.6,13c-7.2,0-13.7,0-20.2,0c-7.7,0-15.4-0.1-23.1,0
			c-11.2,0.1-16.4,5.3-16.6,16.3c-0.1,6.9-0.4,13.8-0.5,20.7c-7.4,1.5-14.8,0.3-22.2,0.7c-4.3,0.2-4.7-2.9-4.8-6
			c-0.3-6.3,1.5-12.2,3.9-18c4.3-10.2,10.1-19.3,19.1-26c2.6-1.9,5.3-4.2,5.9-7.4c1.1-6,4.6-7.2,10-6.9c7.2,0.4,14.4,0.2,21.6,0.1
			C196.3,149.7,198.5,150.1,198.8,153.4z"/>
		<path class="st6" d="M374.3,194.5c0,33,0,66,0,99c0,2,0,4-0.1,6c-0.1,2.4-1.8,2.6-3.7,2.6c-1.9,0-3.6-0.3-3.7-2.7
			c-0.1-2-0.1-4-0.1-6c0-61.8,0-123.6,0-185.4c0-11.9-2.4-14.3-14.4-14.3c-9.5,0-18.9,0-28.4,0c-2.6,0-5,0.1-5-3.7
			c0-3.7,2.2-3.8,4.9-3.8c14.2,0,28.4,0.3,42.6-0.1c6.1-0.2,8,1.5,8,7.8C374.1,127.5,374.3,161,374.3,194.5z"/>
		<path class="st10" d="M112.4,225.5c0,9.8,0.1,19.6,0.1,29.4c3.4,8.5,3.3,17,0,25.4c-0.6,20.8-0.6,20.8,20.5,20.8
			c14.8,0,29.7,0.1,44.5,0.1c-5.6,1.7-11.3,0.7-16.9,0.7c-19.7,0.1-39.3-0.1-59,0.1c-5.2,0.1-7.4-0.8-7.2-6.8
			c0.4-21.3,0.3-42.7,0.1-64c-0.1-4.7,1-6.8,6.1-6.2C104.4,225.6,108.4,225.4,112.4,225.5z"/>
		<path class="st11" d="M198.8,153.4c-1.7-2.7-4.2-3-7.1-2.9c-5.2,0.2-10.4,0-15.7,0.1c-5.7,0-12.1-1.8-12.1,7.9
			c0,2.5-4,5.5-6.8,7.5c-13.1,9.5-19.2,23-22.2,38.1c-1.6,7.9-0.2,9,7.8,9.1c5.7,0,11.4,0,17.2,0.1c-13.5,2.6-27,0.6-40.6,0.9
			c-3.7,0.1-2.7-3.6-2.8-5.8c-0.7-20.1,7.4-36,23.3-48.1c3.1-2.3,7.1-3.7,7.4-8.6c0.2-2.8,2.9-2.2,4.7-2.2c14.2-0.1,28.3,0,42.5-0.1
			C197.4,149.3,199.6,149.7,198.8,153.4z"/>
		<path class="st12" d="M142.4,371.2c-21.4,0-42.8,0.2-64.2-0.1c-5.5-0.1-7.9,1-7.8,7.3c0.2,18.5,1.4,15,15,15
			c101.8,0.1,203.6,0.1,305.5,0.2c-2.4,2-5.3,1.1-7.9,1.1c-110.5,0-220.9-0.1-331.4,0.1c-7.5,0-9.9-1.8-9.6-9.5
			c0.6-15.4,0.2-15.4,15.8-15.4c25.7,0,51.4-0.1,77.1,0C137.3,369.8,140.3,368.5,142.4,371.2z"/>
		<path class="st13" d="M308.2,113.2c1.5,13.1,3.8,26,9.1,38.1c2,4.6,0.4,7-2.6,10.2c-3.4,3.6-5.2,0.4-7.4-0.8
			c-5.4-3-11-2.4-16.6-1.1c-2.5,1.3-3.7,0-4.4-2.2c-0.7-2.2-0.2-4.5,0.6-6.5c8.2-19.9,9.7-40.8,8.8-62c-0.2-4.2-0.1-8.4,0.1-12.6
			c0.2-4.6,1.7-7.1,7.2-7c5.9,0.1,4.6,3.8,4.7,7.1C308,88.5,307,100.9,308.2,113.2z"/>
		<path class="st14" d="M241,360.5c5.5,0,10.9,0,16.4,0c3.9,0,7.4-1.2,7.5-5.5c0.1-4.8-3.6-6-7.7-6c-5.4,0-10.8,0-16.6-1.4
			c11.6-5.3,23.1-10.7,34.7-16c3.2-1.4,4.8,0.3,4.8,3.5c0,13.2,0.1,26.3,0,39.5c0,3.9-2.4,4.4-5.6,2.9
			c-11.2-5.2-22.4-10.3-33.7-15.5C240.7,361.5,240.8,361,241,360.5z"/>
		<path class="st15" d="M308.2,113.2c-2.7-5.7-0.9-11.7-1.2-17.5c-0.3-6.2,0-12.4-0.1-18.6c-0.1-3.2,1.2-7.3-4.6-7.2
			c-5.3,0.1-4.2,3.9-4.2,6.9c-0.1,9.2-0.3,18.3,0,27.5c0.5,15.8-3,30.7-8.4,45.5c-1,2.8-5.7,7.2,1,9.7c-2.8,0.9-4.3,5.9-8.6,2
			c-3.5-3.2-4.5-6-2.5-10.8c9.4-22.7,9.6-46.7,9.3-70.8c-0.1-3.5-2-9.2,1.3-10.3c4.9-1.7,10.7-1,16.1-0.6c3.1,0.3,1.9,3.6,1.9,5.6
			C308.2,87.5,308.2,100.4,308.2,113.2z"/>
		<path class="st16" d="M72,313.3c0,6,0.4,11.9-0.2,17.8c-0.6,6.3,2.1,7.4,7.7,7.3c20.9-0.3,41.8-0.1,62.7-0.1
			c-1.6,2.3-4.1,1.3-6.1,1.3c-29,0-58.1-0.2-87.1,0.1c-5.5,0-7.2-1.3-7.1-7c0.1-19.8-0.1-19.8,19.7-19.7
			C65.1,313.1,68.6,313.2,72,313.3z"/>
		<path class="st17" d="M342.1,350.5c14.7,0,29.4,0,44.1,0c2.8,0,6.1-0.9,6.2,4c0.1,5.3-3.3,4.5-6.4,4.5c-29.4,0-58.8,0-88.1,0
			c-2.9,0-6.1,0.8-6.3-4c-0.2-5.3,3.4-4.5,6.5-4.5C312.7,350.5,327.4,350.5,342.1,350.5z"/>
		<path class="st18" d="M197.7,187.9c0,11.1,0,22.1,0,33.2c0,2.4-0.8,5,1.4,7c-0.6,3.9-1.5,7.3-6.8,6.5c-5.3-0.9-3-5-3.1-7.6
			c-0.5-9.7-2.3-12-12.4-12.4c-4-0.2-4.8-1.6-5-5.2c-0.9-21.8-1-21.8,20.7-21.6C194.3,187.6,196,187.8,197.7,187.9z"/>
		<path class="st19" d="M298.3,280.7c-3.2,0-6.5-0.4-9.7,0.1c-6.8,1-8-1.8-8.2-8.1c-0.3-7.5,1.8-10,9.4-9.2c6.9,0.7,13.9,0.3,20.8,0
			c4.2-0.2,6.1,0.5,6,5.5c-0.2,11.8,0.1,11.8-11.6,11.8C302.8,280.8,300.6,280.8,298.3,280.7L298.3,280.7z"/>
		<path class="st13" d="M223.2,223.9c9.7,0.1,15.9,5.1,17.3,13.7c1.3,8-3.6,14.8-12.4,17.5c-4.8,1.6-7.5-0.8-9.5-4.8
			C214.4,242.1,216.4,230.5,223.2,223.9z"/>
		<path class="st20" d="M166.1,335.2c9.2,4.1,18.4,8.1,27.6,12.2c-0.1,0.6-0.1,1.1-0.2,1.7c-5.7,0-11.4,0-17.1,0
			c-3.9,0-7.1,1.3-7.1,5.7c0,4.5,3.3,5.7,7.1,5.7c5.7,0.1,11.3,0,17.5,1.5c-9.3,4.1-18.6,8.2-27.9,12.3c-2.9-0.5-3.2-3-3.3-5.1
			c-0.6-9.7-0.6-19.3,0-29C162.9,338.1,163.2,335.7,166.1,335.2z"/>
		<path class="st21" d="M227.4,353.8c0,3-0.1,5,0,7c0.2,4.3-1.4,6.2-6,6.4c-14.5,0.6-14.6,0.8-14.4-13.6c0.1-3.5-2-8.5,2-10.2
			c5-2,11.1-2.3,16-0.2C229.8,345.3,226.1,351,227.4,353.8z"/>
		<path class="st22" d="M166.1,335.2c-2.4,13-2.3,26.1-0.1,39.2c-0.2,0.2-0.3,0.5-0.5,0.6c-10.9,5.5-11.3,5.2-11.3-6.8
			c0-9.4,0-18.8,0-28.3c0-10.1,0.3-10.3,9.3-6.2C164.5,334.1,165.3,334.7,166.1,335.2z"/>
		<path class="st23" d="M142.4,357.8c-1.7,2.2-4.1,1.3-6.2,1.3c-29.1,0-58.3,0-87.4-0.1c-3,0-6.7,1.2-6.7-4.2s3.7-4.2,6.7-4.2
			c29.1-0.1,58.3-0.1,87.4-0.1c2.1,0,4.5-0.9,6.2,1.3c-3.1,2.7-7,2.3-10.7,2.3c-15.7,0.1-31.4,0-47.1,0.1c-2.4,0-4.8-0.5-8.8,1.3
			c19.5,0.1,37.4,0,55.2,0.1C134.9,355.5,139,354.9,142.4,357.8z"/>
		<path class="st24" d="M163.3,126.7c13.1-0.1,26.1,0,39.2-0.3c4.7-0.1,6.2,1.9,5.5,6.2c-0.3,3.8-2.1,5.4-6.2,5.3
			c-10.7-0.3-21.4-0.1-32.1-0.1C161,137.8,159.5,135.2,163.3,126.7z"/>
		<path class="st25" d="M197.8,248.9c-2.5,2.1-1.5,5-1.5,7.6c-0.1,12,0.3,24.1-0.2,36.1c-0.2,6.2,1.1,9.4,8,8.4
			c0.8-0.1,1.7,0.8,2.6,1.2c-17.5-0.6-17.5-0.6-17.5-18.2c0-11.4,0-22.8,0-34.2c0-2-0.2-4.4,2.8-4
			C194.2,246.1,198,243.9,197.8,248.9z"/>
		<path class="st26" d="M142.4,357.8c-21.6,0-43.2,0-64.8-0.1c-2.5,0-7,1.7-6.6-3.3c0.3-4,4.2-2.5,6.6-2.5
			c21.6-0.1,43.2-0.1,64.8-0.1C142.4,353.8,142.4,355.8,142.4,357.8z"/>
		<path class="st27" d="M293.5,35.5c20.5-2,20.6-2,19.8,18.4c0,1-0.4,1.9-0.6,2.8c-2.1,1-4.5,0.9-6.6,0.5c-4.6-0.8-11,3-13.6-2.5
			C289.8,48.8,289.8,41.8,293.5,35.5z"/>
		<path class="st28" d="M163.3,126.7c0,10.4,0,10.4,10.4,10.4c9,0,17.9-0.3,26.9,0.1c3.9,0.2,5.9-1.4,7.4-4.6c1.1,4.7-0.9,6-5.5,6
			c-19.6-0.2-39.3-0.3-58.9,0c-4.9,0.1-5.7-2-5.8-6.2c-0.1-4.6,1.7-6.1,6.2-5.9C150.4,126.8,156.8,126.7,163.3,126.7z"/>
		<path class="st29" d="M223.2,223.9c-4.5,8.2-6.6,16.6-2.7,25.8c1.5,3.5,3.7,5.7,7.7,5.5c-9.6,2.2-18.2-3.2-19.8-12.3
			C206.6,233.3,212.6,225.7,223.2,223.9z"/>
		<path class="st30" d="M293.5,35.5c0,4.9,0.3,9.8-0.1,14.6c-0.4,5.3,1.8,6.9,6.8,6.5c4.1-0.3,8.3,0,12.5,0
			c-9,2.6-18.8,2.8-26.9,0.3c-6.4-2-1.5-11.7-2.6-17.9c-0.7-3.5,1.5-4.3,4.4-4C289.5,35.3,291.5,35.4,293.5,35.5z"/>
		<path class="st31" d="M299.5,185c-6,1.3-9-1.9-9.1-7.3c-0.1-5.5,3-8.5,9-7.6C300.4,175,300.5,180,299.5,185z"/>
		<path class="st27" d="M299.5,185c-2.3-4.9-2.4-9.9-0.1-14.9c4.9,0.3,6.8,3.7,6.7,7.8C306,181.7,304.2,184.9,299.5,185z"/>
		<path class="st32" d="M273.2,168.8c2.4,2.2,4.7,3.6,5.6,6.9c-2.8,1.4-6.2,1.3-7.9-0.3C269.4,173.9,271.2,171,273.2,168.8z"/>
		<path class="st33" d="M113.7,254.9c6.2-6.6,10.6,1.1,16,2.1c1.6-1.6,0.8-3.7,0.8-5.5c0-4.4,0.1-9.3,6-9.2c5.2,0.1,5.7,4.6,5.6,8.8
			c0,1.9,0.2,3.8,0.3,5.8c5.7-0.1,11.2-9.8,15.8-1.8c4.6,8-6,8.2-9.3,12.7c1.3,2.5,4.5,3.1,6.8,4.6c3.2,2.1,4.6,4.8,2.9,8.1
			c-1.9,3.5-5,3.4-8.4,1.7c-2.4-1.2-4.4-3.4-7.4-3.4c-2.3,4.8,2.6,14.2-6.4,14.3c-9.1,0-4.2-9.3-6.4-14.3
			c-5.5,0.1-10.3,9.1-16.4,1.5c-2.1-6.9,2.9-9.6,8.1-12.7C116.1,264.9,111.4,261.9,113.7,254.9z"/>
		<path class="st34" d="M113.7,254.9c-1.9,8.4,6.2,8.7,10.4,12.7c-3.2,4.5-12.2,4.4-10.6,12.7c-0.3,0-0.7,0-1,0c0-8.5,0-17,0-25.4
			C112.9,254.9,113.3,254.9,113.7,254.9z"/>
	</g>
</g>
</svg>
