<?xml version="1.0" encoding="utf-8"?>
<!-- Generator: Adobe Illustrator 26.0.3, SVG Export Plug-In . SVG Version: 6.00 Build 0)  -->
<svg version="1.1" id="Layer_1" xmlns="http://www.w3.org/2000/svg" xmlns:xlink="http://www.w3.org/1999/xlink" x="0px" y="0px"
	 viewBox="0 0 482 482" style="enable-background:new 0 0 482 482;" xml:space="preserve">
<style type="text/css">
	.st0{fill:#E4EDF8;}
	.st1{fill:#FDC244;}
	.st2{fill:#FDDF76;}
	.st3{fill:#D1DFF0;}
	.st4{fill:#FDB037;}
	.st5{fill:#FDCF59;}
	.st6{fill:#F8CB58;}
	.st7{fill:#FEC243;}
	.st8{fill:#FEC244;}
	.st9{fill:#FDCE59;}
	.st10{fill:#010000;}
	.st11{fill:#000001;}
	.st12{fill:#2ABBC7;}
	.st13{fill:#E95468;}
	.st14{fill:#3B86CE;}
</style>
<g>
	<g>
		<path d="M245.4,49.7c12.2,4.4,17.2,13.5,16,26c-0.6,6,1.6,7.2,7.3,7.2c41.7-0.2,83.4-0.1,125.1-0.1c15.2,0,21,5.7,21,20.5
			c0,68.1,0,136.3,0,204.4c0,14.7-5.6,20.4-20.2,20.4c-14.5,0.1-29,0.1-43.4,0c-4,0-6.9-0.2-7,5.6c-0.1,6.6-4.9,10.1-11.5,10.2
			c-8.5,0.2-16.9,0-26.2,0c1.5,5.8,2.7,11,4.3,16.2c1.3,4.2,0.4,7.3-3.5,9.4c-4.7,2.5-6.9-0.5-8.6-4c-1.8-3.5-2.6-7.4-3.2-11.3
			c-1-6.2-4.2-9.1-10.6-8.3c-4.3-0.3-6.6,0.6-5.2,5.8c5.3,19.3,10.4,38.6,15.6,57.9c0.7,2.6,1.7,5.2,3.8,7.1
			c8.5,2.3,12.1-0.7,10.5-9c-1-5.4-3-10.5-3.7-15.9c-0.7-5,0.3-9.2,7-8.3c1.1,0.5,2.5,0.8,3.3,1.6c4.9,5,8.6,28.5,5.7,34.9
			c-3.5,7.7-11.5,12.5-19.9,12c-9-0.6-16.2-6.7-18.9-16.5c-5.2-18.9-10.1-37.9-15.3-56.8c-1.3-4.8-1.7-10.1-5-15.2
			c-1.8,2.6-1.2,4.9-1.2,6.9c-0.1,16.2,0.1,32.4-0.1,48.5c-0.2,10.6-6.1,18.5-14.9,20.9c-8.4,2.3-17.5-1-22.4-8.2
			c-3.1-4.5-3.7-9.6-3.7-14.9c0-16.9,0-33.8-0.1-50.8c0-0.5-0.3-0.9-0.4-1.4c-2.7-0.3-2.5,1.8-2.9,3.4c-6,22.5-11.9,45.1-18.2,67.6
			c-4.3,15.6-20.9,21.7-32.8,12.2c-7.5-6-9.1-13.9-6.7-22.8c5.3-19.9,10.7-39.7,16.3-60.8c-9,0-17.3,0.1-25.6,0
			c-7.6-0.1-12.1-3.6-12.4-11c-0.2-5.1-2.7-4.8-6.1-4.8c-15,0.1-30,0.1-45,0c-13.8-0.1-19.4-5.9-19.4-19.7c0-68.7,0-137.4,0-206
			c0-13.5,6.1-19.5,19.6-19.6c7.2,0,14.5,0.1,21.7-0.1c3.2-0.1,5.9,0.6,8.2,2.8c1.4,7.3-0.5,10.2-7.7,11c-6.2,0.7-12.5,0.1-18.7,0.4
			c-7.6,0.3-8.6,1.1-8.6,8.8c-0.2,21.4-0.1,42.8-0.1,64.2c0,43.3,0,86.6,0,129.9c0,2.7,0,5.5,0.1,8.2c0.1,4.2,2.1,6.4,6.4,6.5
			c13.7,0.2,27.5,0.2,41.2,0c3.5,0,5.5-1.7,6.5-5c2.6-7.7,8.6-10.5,16.1-11.1c1-0.1,2-0.1,3-0.1c57.4-0.1,114.9-0.1,172.3,0
			c8.8,0,16.4,2.3,19.3,12c1,3.9,4,4.7,7.5,4.7c12.5,0,25,0.2,37.5-0.1c8-0.2,9.9-2.3,10.5-10.4c0.2-3.2,0.1-6.5,0.1-9.7
			c0-59.7,0-119.5,0-179.2c0-2.7,0.1-5.5-0.1-8.2c-0.4-8.4-1.4-9.4-10-10.6c-30.9,0.5-61.8,0.2-92.7,0.2c-49.6,0.1-99.2,0-148.8,0
			c-3.2,0-6.5,0.2-9.7-0.3c-7.2-1-9.1-3.7-7.9-11.1c2.6-3,6.1-2.9,9.6-2.9c23.9,0,47.8-0.2,71.7,0.2c5.3,0.1,6.9-1.4,6.4-6.6
			c-1.2-12.6,3.5-22,16-26.6C239.4,49.7,242.4,49.7,245.4,49.7z"/>
		<path class="st0" d="M132.7,85.6c-1.7,8.6,4,8.6,9.9,8.6c72,0,144,0,216.1,0c11.2,0,22.4,0.2,33.6,0.3c2.4,2.6,2.4,5.9,2.4,9.1
			c0.1,30.7,0.1,61.5,0,92.2c0,2.7-0.1,5.5-1.3,8c-2.2,3.2-4.8,1.5-7.3,0.4c-6.4-2.9-12.6-2.3-18.6,1.1
			c-13.9,7.7-27.7,15.7-41.4,23.9c-9.3,5.6-12,14.4-7.6,22.1c5,8.6,14.2,10.7,24,5.2c14.1-7.9,28.1-16.1,42.1-24.2
			c2.6-1.5,5.3-4.4,8.6-1c1.5,2.8,1.5,5.8,1.5,8.7c0.1,21.8,0.1,43.7,0,65.5c-0.1,10.4-0.6,10.7-11.1,10.7c-11,0-21.9-0.2-32.9,0.1
			c-4.2,0.1-5.9-1.4-6.1-5.3c-2-7.5-7.2-10-14.6-10c-59.4,0.1-118.8,0-178.2,0.1c-9.8,0-13.3,2.9-14.4,12.1c-0.3,2.9-1.1,3.8-4,3.8
			c-16.2-0.1-32.4-0.1-48.7,0c-4.4,0-6.4-2.1-6.5-6.3c-0.1-1.7,0-3.5,0-5.2c0-66.6,0-133.2,0-199.9c0-11.4,0-11.4,11.8-11.4
			c6.2,0,12.5-0.1,18.7,0c6,0.1,9-2.3,7.7-8.6C121.9,90.1,127.3,90.3,132.7,85.6z"/>
		<path class="st1" d="M284.4,344.2c7.6-1.9,12,0.5,12.8,8.8c0.3,3.4,1.7,6.6,2.5,10c1,4,3,6.7,7.6,6.5c2.1,4.6,1.2,10.4,5.6,14
			c-5.2,1.2-6.7,4.1-5.1,9.2s2.6,10.5,4.2,15.6c1.3,4.3,0.3,7.9-3.2,10.5c-3.4,2.4-7.2,2.9-10.7-0.2c1.3-6.7,0.4-13.2-1.5-19.8
			c-4.2-15.1-8.1-30.2-12.2-45.3C283.5,350.4,281.9,347.3,284.4,344.2z"/>
		<path class="st2" d="M149.5,332c-2.7-5.4-0.6-11.1-1.2-16.6c-0.2-1.8,0.7-2.8,2.5-2.9c0.7,0,1.5,0,2.2,0
			c56.7,0.1,113.5,0.2,170.2,0.3c3.7,4.9,2.4,10.4,1.8,15.8c-0.3,2.8-2.1,4.4-5.2,4.2c-1-0.1-2,0-3,0c-53.9,0-107.8,0-161.6,0
			C153.4,332.6,151.4,333.1,149.5,332z"/>
		<path class="st3" d="M344.6,311.1c1.4,3.2,3.4,4.7,7.3,4.6c11.4-0.3,22.9-0.1,34.4-0.1c3.1,0,6,0.1,6-4.4
			c-0.1-26.1-0.1-52.1-0.2-78.2c0-0.8-0.9-1.7-1.3-2.5c-1-3.9,2.1-6.8,2.6-10.5c0.8-5.4-2.8-9.8-2.7-14.9c2.6-2.4,1.5-5.6,1.5-8.5
			c0.1-34,0-68,0-102.1c10.6-0.8,11.3-0.2,11.3,10.1c0,67.2,0,134.4,0,201.6c0,10.4-0.3,10.7-11.1,10.8c-14.2,0-28.5-0.2-42.7,0.2
			C344.6,317.3,343.8,315.2,344.6,311.1z"/>
		<path class="st1" d="M194.4,344.2c3.7,0,7.4,0,11.8,0c-6.4,23.5-12.4,46.6-19,69.6c-2,6.9-6.6,8.2-13.9,4.9
			c6.3-23.8,12.9-47.5,19.2-71.3C192.9,346.1,193.5,345.1,194.4,344.2z"/>
		<path class="st4" d="M232.1,345.4c5-3.3,10.4-0.8,15.6-1.3c2.6-0.3,2.3,2,2.3,3.7c0,17.6,0.2,35.3-0.2,52.9
			c-0.1,6.6-4.8,9.2-12,7.5c-1.3-1.7-1.4-3.6-1.3-5.7c1.1-15.2,0.2-30.3,0.6-45.5C237.3,352.2,236.2,348.2,232.1,345.4z"/>
		<path class="st5" d="M194.4,344.2c-0.7,11.9-5.4,22.9-8.3,34.3c-2.7,10.7-5.4,21.4-8.4,32.1c-0.8,2.9-0.9,6.5-4.4,8.1
			c-4-2.5-4.6-6-3.4-10.3c5.4-20.1,10.9-40.1,16-60.3C187.3,342.6,190.9,343.9,194.4,344.2z"/>
		<path class="st5" d="M284.4,344.2c5.1,19.5,10.4,38.9,15.2,58.4c1.3,5.3,4.2,11.2-1.6,16c-2.1-0.7-2.9-2.6-3.5-4.5
			c-6.3-23.1-12.6-46.3-19-69.8C278.9,344.2,281.6,344.2,284.4,344.2z"/>
		<path class="st6" d="M149.5,332c54.2,0,108.3,0,162.5-0.1c13,0,11.2,1.6,11.4-11.7c0-2.5,0-5,0-7.5c3.3,0.1,8.7-2.1,9.5,1.2
			c1.4,5.6,0.5,11.8,0.1,17.7c-0.1,1.4-2.5,1.2-4,1.2c-59.4,0-118.8,0-178.2-0.1C150.3,332.7,149.9,332.2,149.5,332z"/>
		<path class="st7" d="M232.1,345.4c5.9-0.9,7.6,1.6,7.5,7.4c-0.4,14.6-0.3,29.2,0,43.7c0.1,4.1-1.6,7.7-1.6,11.7
			c-4.8-1-6.1-4.6-6.1-8.8C231.8,381.4,232,363.4,232.1,345.4z"/>
		<path class="st8" d="M236,62.9c4-2.9,7.8-2.2,11.3,0.8c2.3,2,4.5,15.5,2.5,17.6c-2.9,3.1-6.9,1.1-10.4,1.1
			C235.8,76.4,237.7,69.3,236,62.9z"/>
		<path class="st9" d="M236,62.9c6.2,5.6,2.4,13,3.4,19.6c-7.4,0.4-10.4-5.9-7.2-15.2C232.8,65.4,233.8,63.5,236,62.9z"/>
		<path d="M121,212.9c0.4-7.5,3.3-13.6,9.9-17.4c38.6-22.3,77.2-44.6,115.9-66.6c7.2-4.1,14.4-2.1,18.4,5.5
			c3.5,6.7,6.7,6.7,12.4,2.9c7.2-4.8,15-8.9,22.6-13.1c11.1-6.1,22.9-3.2,28.7,6.7c5.7,9.8,2.1,21.5-8.6,28.1
			c-4,2.5-8.1,4.9-12.2,7.2c-3.7,2.1-4.6,4.2-2.1,8.3c2.6,4.1,4.7,3,7.8,1.1c5.3-3.2,10.7-6.4,16.2-9.3c10.7-5.6,22.3-2.4,28,7.3
			c5.7,9.9,3,21.6-7.5,27.8c-38.4,22.2-76.9,44.2-115.4,66.2c-7.3,4.1-14.2,2.2-18.4-5.4c-3-5.4-5.4-5.4-10.3-2.4
			c-15.8,9.5-31.9,18.5-47.9,27.5c-8,4.5-15.9,4.1-23.1-1.6c-6.9-5.5-9.1-12.9-6.9-21.4c1.5-5.9,5.5-9.9,10.7-12.9
			c7.5-4.4,15-9,22.7-12.9c4.9-2.5,3-5,1.3-8.2c-1.9-3.5-3.6-4.8-7.4-2.3c-9.1,6.1-18.4,7.5-27.5,0
			C123.5,224.1,121.4,218.9,121,212.9z"/>
		<path class="st10" d="M105.5,200.5c-9,0.1-16-4.9-18.5-12.1c-2.4-6.9-0.5-15.4,5.9-19.3c16.5-10.1,33.3-19.9,50.4-29
			c7.8-4.1,17.5,0.1,21.8,7.8c4.2,7.5,3.1,17.3-4.2,22.1c-16.4,10.7-33.5,20.4-51,29.4C108.2,200.3,106.1,200.4,105.5,200.5z"/>
		<path class="st11" d="M390.8,205c6.4,8.4,6.4,16.9,0.1,25.4c-16.7,9.8-33.3,19.8-50.3,29.2c-8.9,4.9-19.1,1.4-23.9-7
			c-4.7-8.2-2.5-18.3,6-23.5c15.5-9.4,31.3-18.4,47.2-27.1C377.3,197.9,384.4,200.1,390.8,205z"/>
		<path class="st12" d="M349.2,184.1c0.3,4.8-3.6,7.1-7.6,9.4c-30,17.2-60,34.5-90.1,51.8c-6.3,3.6-12.7,7-18.8,10.8
			c-3.8,2.4-5.8,1.9-8.2-2c-5.9-9.7-11.7-10.9-21.9-5.1c-15.1,8.7-30.2,17.4-45.3,26.1c-1.5,0.9-3,1.9-4.6,2.6
			c-5.3,2.3-9.9,1.6-12.8-3.7c-2.7-5-0.9-9.3,3.7-12.1c7.4-4.5,15.1-8.7,22.6-13.1c11.3-6.6,13-12.7,6.6-23.8
			c-6.2-10.7-12.4-12.3-23.5-6.2c-1.9,1.1-3.9,2.3-6.1,2.8c-4.4,1-8.1-0.6-10-4.7c-1.8-3.9-1.4-7.9,2.2-10.8c1.5-1.3,3.3-2.2,5-3.2
			c35.6-20.5,71.3-41,106.8-61.6c4.5-2.6,7.2-3.5,10.3,2.3c5.4,9.9,11.7,11.1,21.8,5.4c8.2-4.6,16.4-9.4,24.7-14.1
			c7.1-4,11.8-3.3,14.8,2c2.9,5.1,0.9,9.4-6.2,13.7c-4.5,2.7-9.2,5.1-13.4,8.2c-8.4,6.1-8.8,13.1-2,23.4c5,7.5,11.5,9,20,4.3
			c5.9-3.2,11.6-6.9,17.6-9.9C342.3,172.6,349,176.2,349.2,184.1z"/>
		<path class="st13" d="M104.5,189.3c-3.4-0.1-5.6-1.4-6.7-4.3c-1.4-3.7,0.4-6.4,3.3-8.2c7.7-4.6,15.5-9,23.2-13.4
			c7.1-4.1,14.2-8.1,21.4-12.2c3.6-2.1,7-1.5,9.1,1.9c2.1,3.3,1.6,7-2,9.1c-15.2,8.9-30.5,17.7-45.8,26.4
			C106.2,189,105.1,189.1,104.5,189.3z"/>
		<path class="st14" d="M332.8,250.3c-3.2-0.2-5.4-1.2-6.4-3.8c-1.1-3.1-0.8-6.2,2.2-8c15.4-9,30.9-18,46.5-26.7
			c3.7-2.1,6.8-0.2,8.6,3.3c2,3.9,0,6.8-3.3,8.7c-14.6,8.5-29.2,16.9-43.9,25.3C335.3,249.9,333.7,250,332.8,250.3z"/>
	</g>
</g>
</svg>
