<?xml version="1.0" encoding="utf-8"?>
<!-- Generator: Adobe Illustrator 26.0.3, SVG Export Plug-In . SVG Version: 6.00 Build 0)  -->
<svg version="1.1" id="Layer_1" xmlns="http://www.w3.org/2000/svg" xmlns:xlink="http://www.w3.org/1999/xlink" x="0px" y="0px"
	 viewBox="0 0 468 468" style="enable-background:new 0 0 468 468;" xml:space="preserve">
<style type="text/css">
	.st0{fill:#010101;}
	.st1{fill:#010000;}
	.st2{fill:#FD75A7;}
	.st3{fill:#98E5FB;}
	.st4{fill:#2ED0E1;}
	.st5{fill:#01CFFA;}
	.st6{fill:#FD5693;}
	.st7{fill:#FC5693;}
	.st8{fill:#FCCD84;}
	.st9{fill:#00B0CC;}
	.st10{fill:#F9B13F;}
	.st11{fill:#FBB340;}
	.st12{fill:#FCCC84;}
</style>
<g>
	<g>
		<path d="M158.9,135.2c-1.1-5.2,1.4-7.6,6.2-9.3c22.2-7.8,46.6,7.2,49.5,30.5c1.4,11.1-0.8,21.7-5.3,31.7c2.2,2,3.5,0.2,4.8-0.5
			c8.3-4.5,16.5-9.3,24.9-13.6c9.6-5,18-2.7,23.7,6.6c3.6,5.9,7,12,10.2,18.2c5.7,10.7,3.3,19-7.4,25.1
			c-21.5,12.1-43.1,23.9-64.6,35.9c-2.5,1.4-4.9,2.8-6.9,5.5c2.4,0,4.8,0,7.1,0c41.2,0,82.4,0,123.6,0c13.8,0,18.4,4.5,18.4,18.4
			c0,36.8,0,73.6,0,110.5c0,17-7.6,24.5-24.8,24.5c-59.4,0-118.9,0-178.3,0c-17.7,0-24.8-7.1-24.8-24.9c0-25.9,0-51.8,0-77.6
			c0-2.4,0-4.8,0-8.6c-11.6,6.4-22.1,12.2-32.7,18C68.6,333.2,61,331,53.2,317c-2.8-5-5.6-9.9-8.3-15c-5.2-10-2.9-18.3,7-24
			c9.7-5.6,19.5-10.9,29.3-16.4c-0.9-2.4-2.9-1.9-4.4-2.2c-19.6-2.9-33.2-13.3-40.6-31.6c0-6,0-11.9,0-17.9c0.4-0.2,1-0.4,1.2-0.7
			c11.7-25.3,31-33.8,57.9-25.4c10.1,3.1,19.3,8,27.8,14.1c2.4,1.7,4.3,2.5,7.4,0.8c3.1-1.7,3.2-3.9,3.1-6.7
			c-0.8-14.8,0.3-29.3,6.9-42.9c1.9-3.8,3.9-7,8.9-6c6.1,2.2,5.2,6.4,3.2,10.9c-4.6,10.4-6.2,21.3-6.7,32.6
			c8.8,0.4,14.4-2.4,16.2-11.2c0.9-4.3,3.3-8.3,5.9-12c2.2-3.1,5.3-4.8,9.1-2.8c3.9,2,4.9,5.4,3.3,9.5c-1,2.5-2,5.1-3.2,7.5
			c-3.7,7.7-4.8,15.1,1.6,22.1c0.9,1.7,2.2,3.4,2.2,5.6c11-9.5,17.8-21.5,20.6-35.5c4.2-20.8-11.7-36.3-31.8-31.2
			C165.5,139.1,160.9,141.5,158.9,135.2z"/>
		<path d="M419.9,212.7c-1.2,1.5-2.3,3.3-3.7,4.6c-8.8,7.8-11.4,17-8.9,28.6c1.8,8.5-3.4,11.9-11.6,8.9c-0.9-0.3-1.9-0.6-2.8-1.1
			c-8.3-5.3-16.3-4.5-25-0.1c-10.9,5.4-15.5,2.4-13.8-9.4c1.5-10.8-1.3-18.9-8.8-26.6c-7.2-7.4-5.3-13.4,5-14.8
			c11.1-1.5,17.5-7,22.4-16.6c4.7-9.2,11-9.2,15.7,0c4.9,9.6,11.3,15.7,22.4,16.4c3.5,0.2,6.2,2.6,9.2,4.2
			C419.9,208.8,419.9,210.7,419.9,212.7z"/>
		<path class="st0" d="M419.9,102.2c-2.3,1.4-4.5,2.8-7.1,3.6c-27.1,7.8-43.6,26.2-52.9,52c-0.6,1.6-1,3.4-1.7,4.9
			c-1.3,2.7-3.5,4.3-6.6,3.3c-3-1-4.2-3.3-3.8-6.4c0.1-1,0.3-2,0.6-2.9c10.3-30.2,29.4-51.8,60.6-61.6c4-1.3,7.6-1,11.1,1.2
			C419.9,98.3,419.9,100.2,419.9,102.2z"/>
		<path class="st1" d="M243.4,118.1c0.1-1,0.1-2,0.4-3c2.5-9.7-0.3-17.4-7.3-24.8c-9-9.4-7.4-14,5.6-16.5
			c9.4-1.8,15.2-6.4,19.5-14.7c6-11.4,11.9-11.4,17.7,0.1c4.5,9,11.1,12.8,20.4,14.7c12,2.5,13.8,7.4,5.2,15.9
			c-7.7,7.8-9,16.1-7.9,26.2c1.2,11.1-3.2,14.4-13,9.2c-10.2-5.5-18.9-4.1-28.6,0.7C247.8,129.7,243.1,126.1,243.4,118.1z"/>
		<path class="st2" d="M158.9,135.2c3.1,3.6,6.9,2.6,10.6,1.6c10.2,2.1,19.3,12.5,21.1,24.3c1.9,13-0.8,25.2-7.6,36.4
			c-1.2,1.9-2.1,4.9-5.5,3.3c-8.9-7.6-5.9-16.2-1.9-24.8c1-2.3,2.1-4.5,3.2-6.7c1.6-3.2,0.8-5.9-2.3-7.6c-3.2-1.7-5.8-0.3-7.6,2.6
			c-3.1,5.1-5.6,10.6-7,16.4c-1,4.5-2.7,6.8-7.8,6.6c-3.1-0.1-6.2,1.4-9.8,2.4c-0.5-12.7,0.8-25,6.5-36.3c2.1-4.1,2.3-7.4-1.5-10.4
			C152.5,140.3,155.7,137.7,158.9,135.2z"/>
		<path class="st0" d="M359.6,99c-15.3-0.2-28.1-13.2-27.9-28.4c0.2-15.3,13.3-28,28.5-27.8c15.3,0.2,28.1,13.3,27.9,28.4
			C387.9,86.4,374.8,99.2,359.6,99z"/>
		<path class="st0" d="M321.1,159.4c-0.2,25.3-2,47.1-11,67.6c-2.4,5.5-5.5,10.6-9.6,15c-2.4,2.6-5.2,3.2-7.9,1
			c-2.9-2.2-2.7-5.3-0.7-7.9c17-22,17.2-48,17.7-73.9c0.1-6.5-0.4-12.9-0.7-19.4c-0.2-3.8,0.4-7.4,4.8-7.9c5-0.5,6.1,3.3,6.4,7.3
			C320.5,148.3,320.8,155.5,321.1,159.4z"/>
		<path class="st3" d="M202.3,346.9c-5,0.9-5.9,4.4-5.8,8.8c0.1,15.2-0.1,30.3,0.1,45.5c0.1,4.1-0.3,6.2-5.5,6.1
			c-18-0.4-35.9-0.1-53.9-0.2c-7.9,0-11-3-11-10.7c-0.1-30.3,0-60.7-0.1-91c0-3.2,1.1-4.9,3.8-6.4c12.7-6.9,25-14.4,37.9-20.8
			c8.3-4.1,17.7-1.3,26.5-1.5c3.5-0.1,2,3.4,2,5.3c0.1,13.7,0.2,27.3,0,41c-0.1,4.6,1.4,7.7,5.9,9
			C205.8,337,205.8,341.9,202.3,346.9z"/>
		<path class="st3" d="M302.8,406.8c-11.9,0.1-23.9-0.1-35.8,0.5c-5.7,0.3-5.7-2.5-5.7-6.7c0.1-36.5,0.1-72.9,0.1-109.4
			c0-14.6,0-14.6,14.9-14.6c9.5,0,18.9,0.2,28.4,0.3c2.5,2.9,2.3,6.5,2.3,9.9c0,35.9,0.1,71.8,0,107.8
			C306.8,399,307,403.6,302.8,406.8z"/>
		<path class="st2" d="M202.3,346.9c0-4.9,0-9.8,0-14.7c4.5-1.6,5.6-4.9,5.6-9.4c-0.2-13.4,0.1-26.9-0.1-40.3c-0.1-4.5,1-6.1,5.8-6
			c10.5,0.3,21,0.3,31.5,0c4.4-0.1,5.4,1.4,5.4,5.6c-0.1,39.8-0.2,79.6,0,119.4c0,4.7-1.4,5.9-5.9,5.8c-10.2-0.3-20.5-0.4-30.7,0
			c-5.3,0.2-6.1-1.9-6-6.5c0.2-14.9,0-29.8,0.1-44.8C207.9,351.8,207.4,348,202.3,346.9z"/>
		<path class="st4" d="M302.8,406.8c1.4-3.8,1.8-7.6,1.8-11.6c-0.1-39.4-0.1-78.8-0.1-118.2c7.2-0.1,14.4-0.1,21.7-0.4
			c3.6-0.1,5.5,0.9,5.4,5c-0.1,38.8,0,77.5-0.1,116.3c0,6-3.3,9.2-9.3,9.3C315.8,407.1,309.3,406.9,302.8,406.8z"/>
		<path class="st5" d="M131.5,284c0.2,2.3-2,2.5-3.3,3.3c-17.8,9.9-35.6,19.8-53.4,29.7c-4.7,2.6-7.9,1.7-10.3-3
			c-3-5.7-6.3-11.3-9.4-16.9c-2.4-4.3-1.5-7.4,3-9.8c17.9-9.8,35.7-19.7,53.5-29.6c1.9-1,3.8-2.9,5.6,0.3
			c4.6,8.2,9.2,16.5,13.8,24.7C131,283,131.2,283.4,131.5,284z"/>
		<path class="st6" d="M191.9,250.1c0,2.1-1.6,2.5-2.9,3.2c-14.4,8-28.8,15.9-43,24c-3.2,1.8-4.7,1.3-6.4-1.8
			c-3.9-7.5-8-14.9-12.4-22.1c-1.7-2.9-1.1-4.2,1.7-5.7c14.6-8,29.2-16.1,43.7-24.3c2.5-1.4,3.9-1,5.2,1.5
			c4.1,7.7,8.4,15.2,12.7,22.8C191.1,248.6,191.6,249.4,191.9,250.1z"/>
		<path class="st2" d="M105.7,214.5c-0.8,3.6-3.2,2.8-5.8,2.3c-5.8-1.2-11.7-2.3-17.6-3.3c-4-0.7-7.2,0.5-7.7,4.9
			c-0.4,3.9,2.3,5.7,5.9,6.3c2.5,0.4,4.9,1.1,7.4,1c12.4-0.6,16.6,8.1,20.7,17.4c1.6,3.6-0.9,3.8-2.6,4.7
			c-14.4,7.5-46.5-1.3-54.7-15.2c-4.2-7.1-5.4-14.8-1.7-22.6c4.6-5.3,11.2-6.8,17.6-7.1C81.2,202.1,94.8,204.2,105.7,214.5z"/>
		<path class="st5" d="M244.7,222c-13,7.4-25.9,14.7-38.8,22.1c-2.6,1.5-3.8,1-5.2-1.5c-4.2-7.9-8.6-15.7-13.2-23.4
			c-1.7-2.8-0.5-3.8,1.8-5c12.9-7,25.8-14,38.6-21c0.2-0.1,0.5-0.3,0.7-0.2C235,196.1,245.3,214.7,244.7,222z"/>
		<path class="st7" d="M177.5,200.8c7.3-7.3,10.3-16.6,11.5-26.5c2.1-16.8-4.5-29.4-19.4-37.6c16.5-5.5,33.3,5.8,34.3,23.7
			c0.9,16.3-6.7,29.8-16.7,41.8C184.1,205.7,179.6,208.2,177.5,200.8z"/>
		<path class="st8" d="M156.1,219.7c-10.8,6.1-21.6,12-32.3,18.3c-3.1,1.8-4.5,1.2-6.3-1.8c-6.2-10.4-5.2-15,5.5-20.9
			c7.4-4.1,14.8-7.9,22.2-11.9C151.5,207.1,157,211.3,156.1,219.7z"/>
		<path class="st9" d="M244.7,222c-4.1-10.5-9.2-20.3-16.8-28.8c5.1-3,10.3-5.9,15.4-9c4.7-2.8,7.9-1.5,10.3,3.1
			c2.9,5.5,6,10.9,9.1,16.3c2.6,4.5,1.8,8-2.9,10.5C254.8,216.8,249.7,219.4,244.7,222z"/>
		<path class="st7" d="M105.7,214.5c-10.1-5.6-21-9.2-32.4-10.3c-8.3-0.8-16,2.9-23.7,5.6c4.7-13.1,18.1-20.2,33.7-17.5
			c11.7,2,22.1,6.9,31.8,13.7C111.9,208.9,108.8,211.7,105.7,214.5z"/>
		<path class="st10" d="M156.1,219.7c-1.5-6.8-6.9-11.1-10.9-16.3c12-8.3,17.2-7.2,23.1,4.3c1.6,3.1,1.7,4.8-1.7,6.4
			C163.1,215.8,159.6,217.8,156.1,219.7z"/>
		<path class="st11" d="M382.6,199c4,9.6,12.8,12.1,23.3,14c-9.7,8.3-13.7,17.4-9.2,29.6c-8.5-2.5-15.4-7.1-23.2-3.4
			c-0.6-0.8-1-1.8-0.7-2.7c3.9-11.4,6-23.3,8.2-35.1C381.1,200.3,381.8,199.6,382.6,199z"/>
		<path class="st12" d="M382.6,199c-0.9,13.9-3.9,27.3-9.2,40.2c-2.4,1.1-4.9,2.2-8.7,3.8c2.9-12.2,0.9-22.1-9.7-29.5
			c2.8-1,4.2-1.8,5.6-1.9c8.6-0.7,14-5.5,17.4-13.1C379.8,194.5,381.5,194.7,382.6,199z"/>
		<path class="st11" d="M273,70.8c3.9,9.3,12.5,11.5,22.9,13.5c-9.8,8.2-12.9,17.5-9.9,29.6c-8.1-3-14.6-6.6-22-4
			c-1.7-2-1-4.3-0.3-6.3c3-8.9,5.6-17.9,6-27.4C269.7,73.8,270.5,71.7,273,70.8z"/>
		<path class="st12" d="M273,70.8c-1.8,13.3-4.3,26.5-9,39.1c-2.3,2-5.2,2.7-9.2,4c3.1-11.8,0.7-21.6-9.4-29
			c2.1-0.9,3.2-1.7,4.4-1.8c8.7-0.8,14.8-5,18.3-13.1C270.5,64.3,271.6,68.5,273,70.8z"/>
		<path class="st6" d="M353.7,55.8c8.4-2.9,15.1-1.1,19.8,5.3c4.2,5.7,4.2,13.8,0,19.5c-4.7,6.4-11.4,8.2-19.8,5.3
			c-0.2-1.8,0.4-3.4,1.3-4.9c3.9-6.8,3.8-13.5,0-20.3C354.1,59.2,353.5,57.6,353.7,55.8z"/>
		<path class="st2" d="M353.7,55.8c8.7,11.7,8.7,18.3,0,30.1c-7.3-2.4-10.4-7.8-10.4-15C343.3,63.7,346.4,58.2,353.7,55.8z"/>
	</g>
</g>
</svg>
